<?xml version="1.0" encoding="iso-8859-1"?>
<!-- Generator: Adobe Illustrator 19.0.0, SVG Export Plug-In . SVG Version: 6.00 Build 0)  -->
<svg version="1.1" id="Layer_1" xmlns="http://www.w3.org/2000/svg" xmlns:xlink="http://www.w3.org/1999/xlink" x="0px" y="0px"
	 viewBox="0 0 473.931 473.931" style="enable-background:new 0 0 473.931 473.931;" xml:space="preserve">
<circle style="fill:#49A0AE;" cx="236.966" cy="236.966" r="236.966"/>
<polygon style="fill:#BBBCBB;" points="379.119,117.128 385.229,123.575 377.514,163.29 373.862,120.275 "/>
<polygon style="fill:#AEACAC;" points="376.979,162.074 87.886,162.22 103.134,338.147 398.501,338.001 "/>
<polygon style="fill:#D32027;" points="376.975,162.074 87.886,162.22 90.023,117.274 379.119,117.128 "/>
<polygon style="fill:#BBBCBB;" points="376.979,162.074 87.886,162.22 93.694,349.667 382.793,349.522 "/>
<polygon style="fill:#EBEDEF;" points="376.979,162.074 87.886,162.22 78.001,341.394 325.41,341.267 337.32,310.813 
	361.839,313.054 "/>
<polygon style="fill:#AEACAC;" points="324.059,341.252 337.32,310.813 361.679,312.437 "/>
<g>
	<path style="fill:#B9B9BA;" d="M142.31,208.158c0,5.336-4.067,9.657-9.085,9.657h-26.787c-5.025,0-9.089-4.322-9.089-9.657
		l1.74-16.497c0-5.332,4.067-9.657,9.085-9.657h26.787c5.021,0,9.089,4.325,9.089,9.657L142.31,208.158z"/>
	<path style="fill:#B9B9BA;" d="M195.904,208.158c0,5.336-4.064,9.657-9.081,9.657h-26.795c-5.018,0-9.085-4.322-9.085-9.657
		l1.74-16.497c0-5.332,4.067-9.657,9.085-9.657h26.791c5.021,0,9.089,4.325,9.089,9.657L195.904,208.158z"/>
	<path style="fill:#B9B9BA;" d="M250.582,208.158c0,5.336-4.067,9.657-9.085,9.657H214.71c-5.018,0-9.081-4.322-9.081-9.657
		l1.736-16.497c0-5.332,4.067-9.657,9.085-9.657h26.784c5.021,0,9.089,4.325,9.089,9.657L250.582,208.158z"/>
	<path style="fill:#B9B9BA;" d="M305.264,208.158c0,5.336-4.067,9.657-9.089,9.657h-26.784c-5.018,0-9.085-4.322-9.085-9.657
		l1.736-16.497c0-5.332,4.067-9.657,9.089-9.657h26.784c5.018,0,9.081,4.325,9.081,9.657L305.264,208.158z"/>
	<path style="fill:#B9B9BA;" d="M359.404,207.582c0,5.336-4.067,9.657-9.085,9.657h-26.791c-5.018,0-9.085-4.322-9.085-9.657
		l1.736-16.497c0-5.332,4.067-9.657,9.089-9.657h26.787c5.021,0,9.085,4.325,9.085,9.657L359.404,207.582z"/>
	<path style="fill:#B9B9BA;" d="M138.516,253.635c0,5.336-4.067,9.657-9.085,9.657H102.64c-5.021,0-9.085-4.322-9.085-9.657
		l1.74-16.497c0-5.332,4.064-9.657,9.081-9.657h26.791c5.021,0,9.089,4.325,9.089,9.657L138.516,253.635z"/>
	<path style="fill:#B9B9BA;" d="M192.113,253.635c0,5.336-4.064,9.657-9.085,9.657h-26.791c-5.018,0-9.085-4.322-9.085-9.657
		l1.74-16.497c0-5.332,4.067-9.657,9.085-9.657h26.791c5.021,0,9.085,4.325,9.085,9.657L192.113,253.635z"/>
	<path style="fill:#B9B9BA;" d="M246.788,253.635c0,5.336-4.067,9.657-9.089,9.657h-26.784c-5.018,0-9.085-4.322-9.085-9.657
		l1.736-16.497c0-5.332,4.067-9.657,9.089-9.657h26.784c5.018,0,9.085,4.325,9.085,9.657L246.788,253.635z"/>
	<path style="fill:#B9B9BA;" d="M301.462,253.635c0,5.336-4.064,9.657-9.081,9.657h-26.784c-5.018,0-9.089-4.322-9.089-9.657
		l1.74-16.497c0-5.332,4.067-9.657,9.085-9.657h26.787c5.018,0,9.085,4.325,9.085,9.657L301.462,253.635z"/>
	<path style="fill:#B9B9BA;" d="M355.606,253.055c0,5.336-4.067,9.657-9.085,9.657h-26.787c-5.021,0-9.089-4.322-9.089-9.657
		l1.74-16.497c0-5.332,4.067-9.657,9.085-9.657h26.795c5.018,0,9.081,4.325,9.081,9.657L355.606,253.055z"/>
	<path style="fill:#B9B9BA;" d="M134.183,299.648c0,5.336-4.064,9.658-9.085,9.658H98.315c-5.018,0-9.085-4.322-9.085-9.658
		l1.736-16.497c0-5.332,4.067-9.657,9.089-9.657h26.784c5.018,0,9.081,4.322,9.081,9.657L134.183,299.648z"/>
	<path style="fill:#B9B9BA;" d="M187.78,299.648c0,5.336-4.067,9.658-9.089,9.658h-26.784c-5.018,0-9.085-4.322-9.085-9.658
		l1.736-16.497c0-5.332,4.067-9.657,9.089-9.657h26.784c5.018,0,9.085,4.322,9.085,9.657L187.78,299.648z"/>
	<path style="fill:#B9B9BA;" d="M242.459,299.648c0,5.336-4.067,9.658-9.085,9.658h-26.787c-5.018,0-9.085-4.322-9.085-9.658
		l1.736-16.497c0-5.332,4.067-9.657,9.089-9.657h26.787c5.018,0,9.085,4.322,9.085,9.657L242.459,299.648z"/>
	<path style="fill:#B9B9BA;" d="M297.141,299.648c0,5.336-4.067,9.658-9.085,9.658h-26.791c-5.021,0-9.089-4.322-9.089-9.658
		l1.74-16.497c0-5.332,4.067-9.657,9.085-9.657h26.791c5.021,0,9.089,4.322,9.089,9.657L297.141,299.648z"/>
	<path style="fill:#B9B9BA;" d="M351.276,299.071c0,5.336-4.067,9.657-9.085,9.657h-26.787c-5.018,0-9.085-4.322-9.085-9.657
		l1.74-16.497c0-5.332,4.067-9.658,9.085-9.658h26.787c5.018,0,9.085,4.325,9.085,9.658L351.276,299.071z"/>
</g>
<g>
</g>
<g>
</g>
<g>
</g>
<g>
</g>
<g>
</g>
<g>
</g>
<g>
</g>
<g>
</g>
<g>
</g>
<g>
</g>
<g>
</g>
<g>
</g>
<g>
</g>
<g>
</g>
<g>
</g>
</svg>
