<?xml version="1.0" encoding="iso-8859-1"?>
<!-- Generator: Adobe Illustrator 19.0.0, SVG Export Plug-In . SVG Version: 6.00 Build 0)  -->
<svg version="1.1" id="Layer_1" xmlns="http://www.w3.org/2000/svg" xmlns:xlink="http://www.w3.org/1999/xlink" x="0px" y="0px"
	 viewBox="0 0 473.931 473.931" style="enable-background:new 0 0 473.931 473.931;" xml:space="preserve">
<circle style="fill:#4ABC96;" cx="236.966" cy="236.966" r="236.966"/>
<polygon style="fill:#BBBCBB;" points="385.356,121.136 390.247,127.104 384.559,167.709 382.531,167.302 381.315,125.076 "/>
<polygon style="fill:#AEACAC;" points="383.216,166.086 94.12,166.231 109.372,342.158 404.739,342.012 "/>
<polygon style="fill:#D32027;" points="383.209,166.086 94.12,166.231 96.257,121.282 385.356,121.136 "/>
<polygon style="fill:#BBBCBB;" points="383.216,166.086 94.12,166.231 99.931,353.675 389.031,353.533 "/>
<polygon style="fill:#EBEDEF;" points="383.216,166.086 94.12,166.231 84.238,345.402 331.647,345.278 343.553,314.824 
	368.073,317.066 "/>
<g>
	<path style="fill:#626463;" d="M231.263,298.394h-69.773c0.797-6.889,3.229-13.369,7.281-19.442
		c4.052-6.073,11.652-13.238,22.806-21.496c6.814-5.063,11.173-8.905,13.074-11.536c1.908-2.627,2.859-5.119,2.859-7.48
		c0-2.552-0.939-4.73-2.821-6.541c-1.886-1.807-4.262-2.713-7.113-2.713c-2.971,0-5.392,0.935-7.278,2.799
		c-1.882,1.867-3.151,5.156-3.802,9.878l-23.296-1.882c0.913-6.548,2.589-11.656,5.025-15.33c2.436-3.674,5.875-6.488,10.312-8.449
		c4.434-1.961,10.567-2.941,18.409-2.941c8.187,0,14.555,0.935,19.102,2.799c4.546,1.863,8.127,4.73,10.731,8.591
		c2.608,3.865,3.91,8.191,3.91,12.988c0,5.104-1.489,9.976-4.479,14.619c-2.986,4.643-8.426,9.744-16.299,15.304
		c-4.685,3.233-7.813,5.5-9.396,6.795c-1.579,1.291-3.435,2.986-5.568,5.081h36.314L231.263,298.394L231.263,298.394z"/>
	<path style="fill:#626463;" d="M308.516,233.531l-23.128,2.855c-0.61-3.237-1.624-5.519-3.05-6.851s-3.192-1.998-5.283-1.998
		c-3.768,0-6.702,1.901-8.793,5.706c-1.523,2.739-2.645,8.602-3.371,17.586c2.78-2.818,5.639-4.902,8.565-6.252
		c2.934-1.351,6.32-2.028,10.166-2.028c7.457,0,13.773,2.664,18.93,7.992c5.16,5.328,7.734,12.086,7.734,20.269
		c0,5.519-1.302,10.563-3.906,15.132c-2.608,4.569-6.223,8.022-10.851,10.365c-4.621,2.339-10.421,3.51-17.384,3.51
		c-8.374,0-15.094-1.426-20.157-4.284c-5.066-2.855-9.107-7.412-12.131-13.672c-3.023-6.26-4.539-14.552-4.539-24.868
		c0-15.113,3.177-26.181,9.534-33.201c6.357-7.023,15.169-10.537,26.436-10.537c6.657,0,11.929,0.771,15.786,2.312
		c3.865,1.542,7.072,3.798,9.62,6.765C305.238,225.31,307.184,229.041,308.516,233.531z M265.695,270.817
		c0,4.528,1.141,8.078,3.424,10.649c2.282,2.571,5.081,3.854,8.393,3.854c3.042,0,5.594-1.164,7.648-3.484
		c2.058-2.324,3.083-5.785,3.083-10.391c0-4.718-1.063-8.314-3.195-10.791c-2.129-2.477-4.774-3.712-7.936-3.712
		c-3.233,0-5.942,1.197-8.131,3.596S265.695,266.361,265.695,270.817z"/>
</g>
<polygon style="fill:#AEACAC;" points="330.293,345.26 343.553,314.824 367.916,316.448 "/>
<g>
</g>
<g>
</g>
<g>
</g>
<g>
</g>
<g>
</g>
<g>
</g>
<g>
</g>
<g>
</g>
<g>
</g>
<g>
</g>
<g>
</g>
<g>
</g>
<g>
</g>
<g>
</g>
<g>
</g>
</svg>
