<?xml version="1.0" encoding="iso-8859-1"?>
<!-- Generator: Adobe Illustrator 19.0.0, SVG Export Plug-In . SVG Version: 6.00 Build 0)  -->
<svg version="1.1" id="Layer_1" xmlns="http://www.w3.org/2000/svg" xmlns:xlink="http://www.w3.org/1999/xlink" x="0px" y="0px"
	 viewBox="0 0 491.52 491.52" style="enable-background:new 0 0 491.52 491.52;" xml:space="preserve">
<path style="fill:#27A2DB;" d="M471.814,0H19.706C8.823,0,0,8.81,0,19.678v284.91c0,10.868,8.823,19.678,19.706,19.678h452.108
	c10.885,0,19.706-8.81,19.706-19.678V19.678C491.52,8.81,482.699,0,471.814,0z"/>
<g>
	<path style="fill:#2D93BA;" d="M458.685,200.588c0.5-0.04,1.172-0.487,1.592-0.083c-0.304,0.723-0.85,1.423-1.592,1.76
		c-0.348,0.154-0.806,0.097-1.171,0.251c-0.696,0.286-1.063,1.011-1.672,1.507c-0.577,0.468-1.337,0.867-1.929,1.257
		c-0.569,0.37-1.395,1.128-2.093,0.583c0.055-0.979,1.098-0.969,1.343-1.759c-0.004-0.586-0.522-0.652-0.503-1.256
		c1.161-1.017,2.986-1.749,3.262-3.85c0.127-0.931-0.63-2.929,0.503-3.016c1.335-0.101,0.582,1.343,0.672,2.093
		c0.034,0.305,0.347,0.512,0.499,0.922C457.873,199.731,457.85,200.399,458.685,200.588z"/>
	<path style="fill:#2D93BA;" d="M450.562,205.612c-0.465,1.398-2.502,2.13-3.853,3.015c-0.413,0.273-0.751,0.893-1.256,1.087
		c-0.653,0.26-1.395,0.176-2.091,0.503c-1.106,0.52-1.937,1.537-2.931,2.178c-0.973,0.626-2.395,1.506-3.519,1.59
		c-1.239,0.095-3.527-0.702-2.008-1.841c0.657-0.491,2.053-1.069,2.764-1.422c2.381-1.196,5.73-2,7.703-3.436
		c1.115-0.81,2.123-1.671,3.183-2.343C449.082,204.605,449.974,205.513,450.562,205.612z"/>
	<path style="fill:#2D93BA;" d="M436.075,149.592c0.268-0.073,0.26,0.131,0.42,0.166c-0.101,1.197-0.818,1.98-2.347,1.844
		c-0.683-0.063-1.876-0.575-1.924-0.92C432.054,149.479,435.31,150.22,436.075,149.592z"/>
	<path style="fill:#2D93BA;" d="M431.973,155.286c0.605,0.171,3.294,2.075,2.427,2.929c-0.469,0.471-1.074-0.25-1.839-0.417
		c-1.026-0.224-1.812,0.049-2.512-0.503c-0.797-0.624-0.989-1.983-1.844-2.763c-0.431-0.393-1.573-0.922-2.342-0.838
		c-1.33,0.144-1.318,1.669-2.512,2.345c-1.144-0.123-1.821,0.209-2.681-0.085c-0.905-0.308-1.36-1.482-2.178-1.588
		c-0.85-0.116-2.865,1.37-3.18,0.083c-0.256-1.043,1.405-1.385,1.506-2.093c0.108-0.727-0.652-1.859-1.005-2.178
		c-0.35-0.317-0.844-0.343-1.256-0.585c-0.427-0.256-0.759-0.747-1.256-1.005c-1.753-0.916-4.432-0.543-5.107-2.011
		c-0.12-0.26,0.066-0.546-0.084-0.92c-0.182-0.459-0.857-0.607-1.089-1.005c-0.595-1.021-0.178-2.529,0.837-2.681
		c0.916-0.135,2.721,0.994,2.931,1.677c0.112,0.357-0.076,0.759,0,1.171c0.095,0.495,0.835,1.704,1.507,1.758
		c0.867,0.071,1.379-1.267,2.176-1.758c0.552-0.338,1.455-0.727,2.18-0.67c0.711,0.055,1.189,0.615,2.007,0.92
		c0.586,0.22,1.315,0.307,2.011,0.503c0.607,0.171,1.133,0.529,1.757,0.753c1.994,0.723,4.367,1.146,5.443,2.43
		c0.294,0.351,0.288,0.869,0.672,1.256c0.353,0.358,2.29,0.707,2.343,1.508c0.043,0.609-0.797,0.645-0.835,1.255
		C429.97,153.994,431.681,153.922,431.973,155.286z"/>
	<path style="fill:#2D93BA;" d="M414.303,205.445c-0.25,1.045-1.047,2.206-2.093,2.931c-0.755,0.526-3.157,1.588-3.432,0.085
		c-0.076-0.419,0.467-2.362,0.668-2.764c0.592-1.173,1.224-0.406,2.178-0.252C412.603,205.603,413.523,204.853,414.303,205.445z"/>
	<path style="fill:#2D93BA;" d="M407.771,83.689c0.341,1.005,0.573,1.994,0.839,2.931c-0.924,1.148-2.749,0.723-4.103,1.339
		c-0.637,0.29-0.812,1.347-1.425,1.508c-0.492,0.129-0.874-0.427-1.339-0.419c-1.203,0.023-1.791,2.013-3.267,1.508
		c-0.844,0.503,0.034,2.432-1.004,2.594c-0.738,0.116-1.144-0.837-1.592-1.423c-0.542-0.711-1.315-1.1-1.337-1.675
		c-0.023-0.596,1.201-1.594,1.588-2.009c0.476-0.51,1.41-1.459,2.009-1.592c1.116-0.245,2.25,0.108,3.1-0.249
		c0.733-0.313,0.776-1.468,1.171-1.759c0.336-0.248,0.719-0.18,1.006-0.334c0.777-0.421,1.616-1.869,1.172-3.349
		c-0.28-0.935-1.829-1.958-0.836-3.1c1.482,0.159,3.439,1.62,3.684,3.1c0.096,0.577-0.224,1.155-0.169,1.758
		C407.3,82.862,407.621,83.234,407.771,83.689z"/>
	<path style="fill:#2D93BA;" d="M408.108,74.56c-0.188,0.427-0.567,0.338-0.92,0.586c-0.342,0.241-0.749,1.009-1.171,1.089
		c-0.673,0.127-1.428-0.66-2.096-0.501c-0.784,0.186-0.325,0.789-0.585,1.506c-0.687-0.146-1.815-0.911-1.842-1.675
		c-0.019-0.48,0.605-0.776,0.755-1.339c0.248-0.958-0.395-1.44-0.755-2.345c-0.026-0.135,0.08-0.144,0.083-0.252
		c0.818-0.171,2.425,1.37,4.272,1.675C407.04,73.501,408.038,73.395,408.108,74.56z"/>
	<path style="fill:#2D93BA;" d="M405.011,159.557c0.085,0.696-1.129,0.615-1.256,0.165
		C403.779,159.184,404.862,159.014,405.011,159.557z"/>
	<path style="fill:#2D93BA;" d="M399.147,67.527c0.829,0.438,2.838,1.432,1.423,2.345C399.714,69.555,398.822,68.472,399.147,67.527
		z"/>
	<path style="fill:#2D93BA;" d="M395.297,155.874c0.958-0.522,2.005-1.669,3.683-1.091c-0.368,1.043-1.63,1.021-2.427,1.508
		c-0.808,0.492-1.491,1.327-2.512,1.423c-0.078-0.149-0.188-0.261-0.336-0.336C393.7,156.443,394.633,156.229,395.297,155.874z"/>
	<path style="fill:#2D93BA;" d="M393.037,140.129c0.983,0.002,1.909-0.303,2.592,0.084c-0.127,2.094-3.374,0.502-5.523,0.838
		c-0.459,0.07-0.594,0.425-1.091,0.249c0.028-0.708,0.794-1.425,1.591-1.505C391.219,139.731,392.137,140.126,393.037,140.129z"/>
	<path style="fill:#2D93BA;" d="M393.872,142.723c0.095,1.159-1.487,1.288-1.926,2.18c0.696,1.063,0.966,2.55,1.759,3.514
		c-0.034,0.639,0.129,1.474-0.252,1.759c-1.685,0.323-2.592-2.706-3.267-3.766c-1.288,0.241-0.112,4.363-1.84,3.851
		c-0.848-0.252,0.011-1.43-0.169-2.343c-0.156-0.804-0.943-0.969-1.004-1.594c-0.049-0.516,0.569-1.063,0.753-1.59
		c0.266-0.759,0.097-2.22,1.004-2.259c0.448-0.021,1.049,0.941,1.34,1.003C391.271,143.694,392.459,142.459,393.872,142.723z"/>
	<path style="fill:#2D93BA;" d="M390.773,155.202c-0.308,0.634-2.03,0.33-2.175-0.252
		C388.891,154.29,390.63,154.489,390.773,155.202z"/>
	<path style="fill:#2D93BA;" d="M389.181,157.21c-0.097,0.125-0.209,0.237-0.332,0.337c-0.637-0.203-1.315-0.358-1.507-1.005
		C387.811,155.853,389.16,156.424,389.181,157.21z"/>
	<path style="fill:#2D93BA;" d="M386.921,155.117c-0.425,0.603-1.898-0.049-2.427,0.586c-0.871-0.021-1.749-0.032-1.926-0.753
		c0.251-0.613,1.045-0.192,1.674-0.251C385.253,154.607,386.652,153.897,386.921,155.117z"/>
	<path style="fill:#2D93BA;" d="M375.115,187.189c-0.006-0.739-0.47-1.391-0.588-2.175c-0.042-0.283,0.042-0.649,0-1.007
		c-0.055-0.518-0.311-0.949-0.251-1.256c0.116-0.554,0.763-0.613,0.923-1.088c0.263-0.781-0.321-0.906-0.336-1.842
		c-0.011-0.662,0.502-0.984,0.839-1.842c0.155-0.397,0.161-1.14,0.333-1.423c0.218-0.357,1.144-0.66,1.507-0.835
		c1.284-0.63,2.313-1.801,3.604-2.011c0.325-0.053,0.769,0.041,1.004,0c0.759-0.133,1.713-0.769,2.764-1.004
		c1.016-0.23,1.914-0.144,2.679-0.588c0.84-0.484,2.028-1.753,2.343-2.512c0.383-0.92,0.27-1.696,1.005-2.009
		c0.361-0.152,0.714,0.013,1.089-0.083c0.387-0.101,1.22-0.497,1.508-0.754c0.584-0.522,0.679-1.379,1.339-1.926
		c0.458-0.377,1.319-0.959,1.928-1.254c0.358-0.18,1.021-0.366,1.337-0.337c1.182,0.101,1.731,1.749,3.015,1.423
		c0.459-0.116,0.926-1.091,1.342-1.674c0.603-0.854,1.043-2.005,2.092-2.26c0.847-0.208,1.795,0.325,2.26-0.419
		c0.106-0.529-0.395-0.844,0-1.173c0.977,0.061,2.626,1.378,4.103,1.422c0.795,0.026,2.271-0.866,2.429,0.337
		c0.07,0.532-0.596,0.962-0.753,1.507c-0.112,0.385,0.165,0.592-0.084,1.005c-0.682,0.268-1.402,0.41-1.423,1.171
		c-0.026,0.956,1.351,1.404,2.175,1.928c0.567,0.358,1.038,0.905,1.341,1.087c0.258,0.152,0.666,0.224,0.837,0.334
		c0.544,0.353,0.929,1.153,1.677,1.174c0.85,0.021,1.7-1.064,2.175-2.096c0.557-1.205,0.588-2.669,0.836-3.935
		c0.084-0.423,0.385-0.836,0.503-1.256c0.323-1.145,0.762-2.692,1.757-3.098c1,1.059,1.341,3.119,1.176,4.86
		c0.668,0.507,1.844,0.338,2.007,1.507c0.057,0.404-0.201,0.92-0.167,1.337c0.057,0.706,0.582,1.323,0.672,1.926
		c0.167,1.116-0.186,2.036,0.332,2.848c0.654,1.024,1.935,0.99,2.764,2.096c-0.015,0.687,0.258,0.964,0.418,1.503
		c0.079,0.256,0.004,0.673,0.085,0.84c0.268,0.559,0.994,0.615,1.256,1.086c0.129,0.233,0.093,0.671,0.251,1.089
		c0.229,0.615,0.781,1.074,1.172,1.675c0.378,0.582,0.998,1.214,1.088,1.677c0.168,0.834-0.437,1.406-0.587,2.092
		c-0.18,0.833,0,1.907-0.332,2.763c-0.389,1.006-1.348,1.998-2.095,3.265c-0.614,1.042-1.449,2.216-2.345,2.931
		c-0.529,0.423-1.157,0.668-1.675,1.091c-0.802,0.653-1.459,1.502-2.176,2.26c-0.754,0.797-1.668,1.406-2.263,2.091
		c-0.86,0.996-1.288,2.603-2.761,2.764c-0.863,0.095-1.637,0.021-2.43,0.336c-1.24,0.492-2.062,1.4-2.677,1.423
		c-0.647,0.021-1.246-0.759-1.844-0.838c-0.67-0.086-1.197,0.508-2.176,0.502c-0.4-0.002-0.6-0.237-1.171-0.419
		c-1.197-0.378-2.512-0.363-2.679-1.673c-0.095-0.714,0.455-1.036,0.417-1.676c-0.036-0.639-0.662-0.799-0.922-1.339
		c0.165-0.577,0.192-1.305-0.419-1.676c-0.021-0.52,0.112-0.892,0.336-1.171c-0.486,0.207-1.127,0.336-1.676,0.672
		c-0.61,0.368-1.049,1.213-1.755,1.087c-0.662-0.233-0.154-0.891-0.252-1.423c-0.074-0.406-1-2.138-1.425-2.428
		c-0.484-0.332-2.256-0.998-2.846-1.091c-2.588-0.404-4.237,0.979-6.282,1.176c-0.525,0.049-1.096-0.088-1.589,0
		c-1.683,0.294-3.559,1.63-4.607,2.51c-1.732,0.171-3.487-0.355-5.277,0.169c-1.774,0.517-2.791,1.996-5.523,1.588
		c-0.542-0.465-1.504-0.696-1.508-1.506c-0.006-0.639,0.945-1.051,1.256-1.507c0.33-0.489,0.894-1.639,0.92-2.345
		c0.017-0.556-0.375-1.222-0.336-1.924C374.81,188.318,375.119,187.733,375.115,187.189z"/>
	<path style="fill:#2D93BA;" d="M373.692,152.27c0.457-0.063,0.797-0.401,1.256-0.416c0.975-0.038,1.941,0.721,3.095,0.583
		c0.252,0.271,0.081,0.495,0.087,0.924c0.979,0.522,2.586,0.427,3.095,1.421c-0.734,0.778-1.823,0.22-2.763,0.083
		c-0.85-0.121-1.755-0.061-2.679-0.167c-1.171-0.136-2.231-0.783-3.347-0.92c-0.679-0.085-1.372,0.097-2.011,0
		c-0.753-0.116-3.561-1.176-3.601-1.924c-0.041-0.772,1.264-0.99,2.427-0.84C370.756,151.211,371.761,152.54,373.692,152.27z"/>
	<path style="fill:#2D93BA;" d="M375.95,146.494c-0.632-0.178-1.226-0.081-1.503-0.252c-0.574-0.353-0.489-1.355-0.673-1.926
		c-0.184-0.577-0.879-0.886-1.253-1.674c-0.546-1.142-0.781-3.699,0.668-3.935c0.583-0.098,1.184,0.351,1.59,0.252
		c0.808-0.199,0.666-1.244,1.34-1.677c0.374-0.241,1.06-0.14,1.592-0.334c0.548-0.201,0.96-0.723,1.339-1.172
		c0.351-0.418,0.626-1.121,1.088-1.422c0.52-0.343,1.003-0.351,1.423-0.671c1.098-0.837,1.133-2.005,2.009-3.016
		c0.744-0.854,1.92,0.823,2.011,1.508c0.416,0.532,1.235,0.664,1.59,1.256c-0.493,1.474-1.884,1.601-1.59,3.684
		c0.049,0.34,0.279,0.971,0.503,1.425c0.239,0.49,0.947,1.019,0.92,1.338c-0.055,0.626-1.315,0.599-1.592,1.256
		c-0.254,0.609,0.019,0.649-0.083,1.59c-0.353,0.683-1.298,0.848-1.592,1.677c-0.353,0.996,0.053,2.283-0.752,3.015
		c-0.557-0.03-1.165,0.482-1.84,0.416c-0.734-0.067-1.434-1.074-2.599-1.089c-0.444-0.004-0.969,0.284-1.423,0.252
		C376.767,146.969,376.477,146.639,375.95,146.494z"/>
	<path style="fill:#2D93BA;" d="M370.532,144.63c2.13,0,2.13,3.306,0,3.306C368.401,147.936,368.401,144.63,370.532,144.63z"/>
	<path style="fill:#2D93BA;" d="M367.409,144.231c0.262,0.036,1.188,1.324,1.173,1.677c-0.029,0.59-0.915,0.558-1.173,1.339
		c-0.393,1.203,0.178,2.566-0.501,3.184c-0.38,0.23-1.068,0.161-1.674,0.166c-1.519-1.068-2.721-2.341-4.02-3.768
		c-0.471-0.518-1.046-0.969-1.34-1.508c-0.435-0.799-0.59-1.679-1.087-2.427c-0.44-0.657-1.245-1.127-1.676-1.841
		c-0.35-0.588-0.383-1.36-0.752-1.927c-0.346-0.526-0.93-0.752-1.342-1.173c-0.266-0.275-0.419-0.704-0.668-1.004
		c-1.053-1.261-3.077-1.918-3.18-3.768c0.429-0.49,0.871,0.184,1.673,0.336c0.52,0.098,1.133-0.042,1.507,0.083
		c0.761,0.255,1.285,1.444,2.093,2.093c0.452,0.364,1.043,0.615,1.505,1.004c0.497,0.417,0.861,1.013,1.257,1.256
		c0.545,0.334,1.3,0.554,2.01,1.007c0.968,0.615,2.696,1.255,2.931,2.514c0.057,0.311-0.146,0.839-0.085,1.085
		c0.116,0.44,0.672,0.63,1.005,1.005c0.412,0.467,0.497,1.165,1.088,1.258C366.743,144.983,366.77,144.148,367.409,144.231z"/>
	<path style="fill:#2D93BA;" d="M327.885,126.646c0.721,0.237,3.128,3.161,2.428,4.775c-0.199,0.459-1.029,1.049-1.842,0.92
		c-1.658-0.263-1.341-3.952-0.837-5.443C327.68,126.777,327.766,126.692,327.885,126.646z"/>
	<path style="fill:#2D93BA;" d="M272.198,169.021c0.074-0.674,0.555-1.781,1.089-2.18c0.772-0.573,1.816-0.514,2.596-0.92
		c0.643-0.336,1.534-0.892,2.009-1.507c0.404-0.523,0.425-1.118,0.755-1.508c0.224-0.268,0.732-0.34,1.002-0.668
		c0.243-0.296,0.191-0.846,0.588-1.171c1.163-0.497,1.497,1.632,1.677,3.095c0.053,0.457,0.29,0.946,0.248,1.172
		c-0.121,0.668-0.856,0.806-1.087,1.26c-0.057,1.835-0.778,3.429-1.425,4.937c-0.556,1.303-0.879,2.731-1.338,3.853
		c-0.167,0.408-0.518,0.727-0.669,1.087c-0.605,1.425-0.827,3.663-1.928,4.272c-0.395,0.218-1.925,0.592-2.345,0.586
		c-1.026-0.015-1.914-0.785-2.176-1.673c-0.142-0.476-0.002-0.973-0.084-1.508c-0.102-0.672-0.502-1.246-0.419-2.011
		c0.186-1.704,1.846-2.532,1.926-3.936C272.678,171.143,272.082,170.093,272.198,169.021z"/>
	<path style="fill:#2D93BA;" d="M231.837,49.857c0.097,1.404-2.146,1.229-2.43,2.43c-0.127,0.544,0.262,1.269,0.169,1.758
		c-0.171,0.88-1.021,0.624-2.094,1.089c-0.547,0.237-1.078,1.108-1.675,1.172c-0.552,0.059-0.888-0.322-1.256-0.249
		c-0.55,0.104-0.366,0.778-1.173,0.92c-0.643,0.112-1.768-0.575-1.842,0.252c-0.049,0.531,1.011,0.818,1.675,0.753
		c0.526-0.051,0.911-0.412,1.423-0.419c0.992-0.009,1.637,0.736,2.261,0.755c1.438,0.04,2.849-1.328,4.356-1.173
		c0.681,0.07,1.085,0.552,1.59,0.503c0.808-0.076,1.495-1.009,2.093-1.341c-0.254-1.41,0.023-3.271,1.341-3.349
		c0.905-0.053,2.263,1.548,2.427,0c0.072-0.672-0.714-1.267-1.256-1.256c-0.482,0.01-1.114,0.954-1.508,0.169
		c0.002-0.768,0.863-0.565,1.341-0.755c0.355-0.142,0.607-0.529,1.005-0.67c1.992-0.7,4.753,0.687,5.527-1.005
		c-1.767-1.507-4.776,0.55-6.783,0.419c-0.856-0.055-1.986-0.692-2.26-1.508c-0.087-0.258-0.015-0.605-0.085-1.087
		c-0.076-0.535-0.353-1.095-0.334-1.425c0.085-1.512,3.851-1.797,3.851-3.683c-0.719-0.689-2.827-0.573-3.517,0.167
		c-0.247,0.266-0.235,0.805-0.586,1.341c-0.751,1.144-3.176,1.279-3.935,2.679c-0.169,0.311-0.463,1.161-0.336,1.675
		C230.025,48.808,231.78,49.024,231.837,49.857z M211.906,131.755c-2.413-0.353-4.88,0.62-6.532,1.338
		c-0.954,0.417-1.924,1.051-2.764,1.089c-0.795,0.039-1.578-0.423-2.343-0.501c-0.998-0.104-2.277-0.008-3.267,0.167
		c-0.962,0.171-1.831,0.859-2.679,0.92c-1.624,0.123-3.168-1.463-4.187-2.26c-0.624-0.486-1.258-0.884-1.842-1.339
		c-0.626-0.49-1.438-0.787-1.926-1.256c-0.66-0.638-0.66-1.749-1.005-2.597c-0.408-0.998-1.649-1.732-2.597-2.679
		c-0.709-0.708-2.335-1.768-2.512-2.679c-0.089-0.465,0.199-1.002,0.167-1.508c-0.044-0.734-0.596-1.151-0.586-1.675
		c0.017-0.736,0.884-1.305,1.089-1.926c0.106-0.317,0.055-0.765,0.167-1.172c0.235-0.85,0.798-1.353,0.671-2.597
		c-0.051-0.495-0.476-0.947-0.503-1.59c-0.017-0.44,0.289-0.685,0.252-1.089c-0.064-0.715-0.992-0.854-1.089-1.675
		c-0.097-0.848,0.81-1.548,1.341-2.512c0.239-0.432,0.37-1.093,0.586-1.423c0.47-0.713,1.235-1.057,1.592-1.759
		c0.262-0.518,0.347-1.286,0.586-1.675c0.309-0.499,0.922-0.768,1.508-1.423c0.476-0.535,0.67-1.182,1.004-1.423
		c0.421-0.304,1.049-0.379,1.508-0.586c1.55-0.707,2.684-1.616,3.432-3.1c-0.228-1.347,0.116-1.916,0.67-2.846
		c0.512-0.861,0.886-1.683,1.759-2.178c1.047-0.592,2.03-0.647,2.762-1.757c0.366-0.556,0.916-1.516,0.922-2.093
		c0.008-0.829-0.85-1.891-1.591-2.011c-0.757-0.12-1.92,0.575-2.345-0.249c-0.135-0.264,0.051-0.882,0-1.173
		c-0.097-0.548-0.567-0.935-0.586-1.339c-0.04-0.786,0.774-1.605,1.004-2.512c0.313-1.235,0.011-2.18-0.085-3.601
		c1.172-1.846,3.773-0.931,6.365-0.755c0.389,0.027,0.835-0.093,1.256-0.082c1.537,0.036,2.747,0.499,3.265-0.838
		c0.195-0.503,0.368-2.375,0.252-2.848c-0.137-0.561-1.237-2.013-1.76-2.343c-0.831-0.529-2.036-0.298-2.512-1.256
		c0.387-1.654,2.239-0.277,3.349-0.67c0.567-0.201,0.503-1.182,1.007-1.341c0.343-0.108,0.78,0.345,1.256,0.336
		c0.406-0.009,1.876-0.747,2.26-1.007c0.535-0.362,0.7-1.112,1.172-1.423c0.319-0.209,0.74-0.184,1.089-0.334
		c0.712-0.307,1.613-0.93,2.093-1.508c0.692-0.829,1.002-1.857,1.842-2.009c1.123-0.205,3.662,0.222,3.853-1.007
		c0.18-1.169-1.03-2.089-0.586-3.349c0.351-0.996,1.245-0.82,2.512-1.423c0.611,0.434,0.434,1.673,0.501,2.43
		c0.778,0.006,2.362-0.23,2.512-0.922c0.188-0.863-1.133-1.74-1.423-2.261c-0.313-0.565-0.38-1.556-1.005-1.675
		c-1.275-0.245-2.514,1.757-4.104,1.757c-1.045,0-2.153-0.806-2.428-1.59c-0.157-0.448-0.015-0.871-0.085-1.34
		c-0.101-0.685-0.512-1.396-0.334-2.343c0.641-1.099,2.119-1.277,3.183-1.844c0.402-0.214,0.725-0.67,1.172-0.837
		c0.751-0.277,1.861,0.002,2.597-0.419c0.465-0.264,0.334-0.721,0.671-1.256c0.209-0.336,0.721-0.533,1.004-0.92
		c0.197-0.269,0.22-0.675,0.419-0.922c0.727-0.905,2.055-1.239,2.595-2.176c0.239-0.414-0.413-0.569-0.249-1.173
		c0.271-0.584,1.315-0.155,1.924-0.252c0.833-0.129,1.603-1.142,2.512-1.339c0.95-0.205,1.967-0.081,2.849-0.419
		c0.526-0.203,1.011-0.681,1.508-0.755c0.176-0.025,0.67,0.095,0.92,0.085c0.319-0.012,0.664-0.209,1.089-0.252
		c0.616-0.061,1.379,0.15,2.178,0.167c1.324,0.03,2.582-0.397,3.684,0.085c0.576,0.252,0.511,0.905,1.255,1.172
		c0.375,0.135,0.869-0.053,1.424,0c0.82,0.078,1.677,0.645,2.764,0.755c0.387,0.038,0.787-0.049,1.171,0
		c1.197,0.146,2.512,0.776,3.686,1.172c0.981,0.332,3.06,0.744,3.098,1.675c0.046,1.102-1.808,1.423-2.596,1.423
		c-1.318,0-3.062-0.77-4.436-0.334c0.021,1.895,2.065,3.328,3.935,3.098c0.164-0.89-1.058-0.395-0.922-1.256
		c0.835-0.63,1.835,0.423,3.016,0.252c0.46-0.125,0.383-0.791,0.501-1.256c0.996-0.605,2.243-1.493,3.768-0.837
		c0.076-0.148,0.188-0.26,0.336-0.334c0.099-0.92-1.005-1.4-0.419-2.263c0.292-0.594,1.853-0.389,2.093,0.085
		c0.121,0.567-0.387,0.505-0.336,1.005c0.296,0.668,0.979,0.774,1.341,0.755c0.822-0.044,0.985-0.78,1.759-1.173
		c0.313-0.159,0.772-0.176,1.171-0.334c0.474-0.188,0.876-0.569,1.256-0.67c0.279-0.074,0.7,0,1.089-0.085
		c0.495-0.106,1.017-0.503,1.423-0.501c0.505,0,0.866,0.583,1.507,0.67c0.349,0.046,0.747-0.199,1.256-0.252
		c0.41-0.045,0.835,0.049,1.172,0c0.799-0.116,1.349-0.537,2.01-0.503c0.468,0.025,1.269,0.655,1.59,0.336
		c0.542-0.537-0.723-0.937-0.332-1.425c1.283,0.097,2.648,0.067,3.935,0.252c1.913,0.273,3.715,1.22,5.441,1.256
		c-0.163-1.163-1.495-0.829-2.093-1.339c-0.182-0.157-0.931-1.383-0.92-1.759c0.004-0.188,0.948-1.8,1.172-2.009
		c0.738-0.693,3.159-0.689,3.85,0.25c0.474,0.643,0.317,1.611,1.004,1.592c0.592-0.017,0.907-1.472,1.592-1.508
		c0.567-0.03,0.854,0.933,1.423,0.922c0.694-0.015,1.176-1.307,2.094-1.341c0.495-0.019,0.659,0.254,1.422,0.334
		c0.525-0.337-0.175-0.78,0.085-1.256c0.936-0.681,3.075-0.163,4.269-0.586c0.334-0.398-0.425-0.679-0.083-1.089
		c1.032-0.721,2.766-0.787,4.524-1.087c1.074-0.184,2.087-0.93,2.928-1.007c0.88-0.078,1.719,0.516,2.512,0.503
		c0.482-0.008,1.043-0.154,1.508-0.334c0.471-0.184,0.793-0.641,1.258-0.755c0.734-0.18,1.662,0.087,2.512,0
		c0.898-0.091,1.692-0.44,2.343-0.334c0.609,0.097,1.098,0.746,1.675,0.837c1.764,0.275,3.584-0.264,5.191,0.167
		c0.288,0.078,0.577,0.376,0.922,0.503c1.076,0.393,1.81,0.271,2.011,1.59c0.846,0.3,1.342,1.076,2.343,1.34
		c0.668,0.176,1.34-0.085,2.093-0.085c0.989,0,2.256,0.038,3.098,0.167c0.48,0.074,0.876,0.428,1.341,0.504
		c0.338,0.055,0.786-0.036,1.171,0c0.525,0.048,0.996,0.264,1.423,0.252c0.878-0.027,1.544-0.81,2.26-0.922
		c0.385-0.059,0.897,0.137,1.256,0.167c1.411,0.119,3.037-0.184,4.187,0.085c0.615,0.143,1.667,0.82,2.345,1.339
		c0.492,0.376,0.791,0.975,1.255,1.256c0.44,0.267,1.557,0.744,2.011,0.671c0.535-0.085,0.558-0.681,1.087-0.92
		c1.662-0.37,4.61,0.529,5.947-0.085c0.517-0.239,0.416-0.787,0.837-1.089c2.512-0.123,5.016,0.104,7.369,0.167
		c0.827,0.023,1.681-0.212,2.43-0.083c0.829,0.144,1.433,0.975,2.258,1.256c0.55,0.186,1.518,0.089,2.345,0.252
		c0.555,0.108,1.011,0.442,1.422,0.501c0.895,0.127,1.749-0.1,2.599-0.167c1.92-0.155,4.388-0.256,6.28,0.503
		c1.007,0.404,1.43,1.22,2.51,1.339c1.548,0.171,3.944-0.127,5.528,0c0.378,0.032,0.732,0.188,1.004,0.167
		c0.531-0.038,0.854-0.488,1.508-0.501c0.829-0.019,2.148,1.292,3.352,1.089c0.518-0.351-0.417-0.839,0.08-1.173
		c0.472-0.392,1.117-0.004,1.844,0c0.395,0.004,0.882-0.201,1.256-0.167c0.92,0.08,1.794,0.907,2.931,1.171
		c0.903,0.212,2.145,0.29,3.267,0.169c0.804-0.089,1.493-0.359,2.26-0.252c0.37,0.051,0.7,0.319,1.087,0.419
		c0.358,0.091,0.707,0.004,1.005,0.082c0.279,0.076,0.556,0.338,0.839,0.419c1.556,0.446,3.629,0.666,5.276,1.174
		c0.969,0.298,1.958,0.899,2.764,0.92c0.396,0.013,0.749-0.171,1.256-0.167c2.53,0.017,5.505,1.07,5.272,3.434
		c-2.961,0.649-5.437-2.038-8.541-1.256c-0.495,0.125-1.045,0.668-1.003,1.171c0.115,1.459,3.792,1.336,4.1,2.764
		c-0.602,0.451-1.26,0.025-1.757,0.085c-0.755,0.089-2.028,0.886-2.512,1.339c-0.567,0.531-1.063,1.891-1.674,2.011
		c-0.749,0.146-1.891-0.738-3.015-0.503c-0.413,0.087-0.808,0.601-1.171,0.67c-0.924,0.176-2.1-0.503-2.677,0.586
		c0.304,0.765,0.118,1.831,0.752,2.261c0.408,0.279,0.92,0.063,1.423,0.251c0.588,0.22,0.914,0.937,1.421,1.341
		c0.417,0.328,0.861,0.337,1.091,0.753c0.053,0.617-0.246,0.685-0.169,1.089c0.131,0.702,1.229,0.861,1.256,1.339
		c0.038,0.605-0.692,0.476-0.835,1.089c-0.053,0.389,0.45,0.493,0.501,1.005c0.034,0.343-0.277,0.7-0.25,1.089
		c0.036,0.558,0.476,0.93,0.417,1.423c-0.049,0.423-0.417,0.753-0.755,0.922c-1.603-1.03-3.047-2.449-4.773-3.768
		c-1.766-1.353-4.566-3.015-4.855-5.862c-0.01-0.436,0.924-0.778,1.088-1.423c0.067-0.264-0.104-0.641-0.083-1.005
		c0.059-0.983,0.871-1.928,0.839-2.512c-0.04-0.641-1.235-1.831-1.844-2.011c-0.486,0.256-0.006,0.763-0.084,1.174
		c-0.097,0.505-0.71,1.123-1.256,1.172c-1.584,0.137-1.762-2.041-4.272-1.423c-0.65,0.161-1.562,1.14-1.338,2.345
		c0.069,0.366,1.076,0.759,1.004,1.256c-0.07,0.482-2.282,0.624-2.764,0.586c-1.351-0.108-2.046-1.119-3.265-1.089
		c-0.598,0.015-1.123,0.501-1.592,0.586c-2.637,0.482-6.551-1.298-7.45,1.005c-0.129,0.326-0.057,0.751-0.169,1.089
		c-0.163,0.484-0.548,0.865-0.67,1.173c-0.102,0.258-0.085,0.768-0.252,1.172c-0.152,0.366-1.736,1.795-0.334,2.178
		c0.334,0.089,0.49-0.144,0.922-0.085c0.719,0.097,1.916,1.252,2.761,1.256c0.505,0.002,1.205-0.568,1.591-0.586
		c0.776-0.038,1.336,0.463,1.926,0.753c0.563,0.277,1.424,0.859,1.844,0.837c0.791-0.04,0.413-0.588,1.172-0.837
		c1.448,0.429,2.127,1.964,3.516,3.182c0.504,0.44,1.248,0.818,1.927,1.423c0.378,0.338,1.543,1.245,1.592,1.675
		c0.044,0.4-0.326,0.571-0.421,0.922c-0.136,0.51,0.182,0.884-0.167,1.256c-1.336-0.495-1.637-1.812-2.597-2.931
		c-0.355-0.416-0.713-0.911-1.254-1.508c-0.246-0.268-1.133-1.212-1.677-1.004c-1.053,0.4,0.577,1.996,0.838,2.345
		c0.556,0.738,1.294,1.732,1.342,2.512c0.031,0.499-0.325,1.406-0.336,2.26c-0.006,0.577,0.146,1.102,0.084,1.59
		c-0.064,0.491-0.412,1.051-0.587,1.593c-0.197,0.613-0.241,1.347-0.417,1.757c-0.325,0.755-1.421,1.643-2.18,1.675
		c-0.695,0.03-0.993-0.535-1.674-0.501c-1.03,0.049-1.22,0.998-1.84,1.757c0.053,0.825,0.311,1.108,0.167,1.675
		c-0.226,0.888-1.461,1.042-1.423,1.926c0.034,0.818,1.129,0.977,1.673,1.341c0.749,0.497,2.056,1.603,2.766,2.512
		c0.465,0.596,1.138,1.711,1.089,2.343c-0.064,0.829-2.449,1.981-3.437,1.675c-0.936-0.29-0.615-1.184-0.835-2.009
		c-0.171-0.634-0.668-0.907-0.919-1.423c-0.134-0.271-0.073-0.7-0.254-1.005c-0.505-0.852-1.388-0.387-2.43-0.922
		c-0.682-0.351-0.484-1.089-0.752-1.759c-0.36-0.901-1.878-1.326-3.096-1.087c-0.896,0.173-1.176,0.926-2.011,1.087
		c-1.228-0.728,0.252-2.523-1.255-2.679c-1.155-0.121-1.921,1.658-2.597,2.178c-0.457,0.349-1.285,0.421-1.338,0.92
		c-0.099,0.924,0.975,0.736,1.839,1.089c0.785,0.321,0.876,1.209,1.592,1.256c0.599,0.04,0.996-0.617,1.591-0.67
		c1.029-0.091,1.865,0.372,2.512,0.755c-0.418,1.015-2.673,1.759-2.679,3.098c-0.004,0.776,0.899,0.91,1.592,1.423
		c0.584,0.434,1.354,1.658,2.176,2.512c0.355,0.368,0.931,0.611,1.091,0.838c0.387,0.554,0.325,1.228,0.751,1.592
		c0.072,0.459-0.209,0.571-0.167,1.004c0.207,0.603,1.133,0.489,1.34,1.089c-0.171,1.444,0.43,2.804-0.753,3.349
		c-0.545,2.59-1.161,4.616-2.931,6.029c-1.592,1.267-3.694,1.641-5.612,2.261c-0.498,0.161-0.895,0.685-1.339,0.837
		c-1.114,0.379-3.098,0.148-3.18,1.508c-0.046,0.671,0.85,1.075,0.92,1.758c0.106,1.049-0.833,2.104-1.508,2.178
		c-0.486,0.053-1.535-0.285-1.592-1.174c-0.066-0.998,1.239-1.406,1.341-2.009c0.178-1.066-0.92-2.104-2.176-2.009
		c-1.106,0.082-3.622,2.303-3.684,3.517c-0.049,0.907,1.797,2.795,2.427,3.349c2.352,2.072,4.849,3.316,4.436,8.374
		c-0.587,1.282-2.089,1.555-3.265,2.261c-0.895,0.537-1.341,2.204-2.849,2.345c-0.605-0.207-0.252-1.153-0.419-1.591
		c-0.228-0.6-1.427-0.894-2.176-1.507c-0.613-0.504-0.871-1.296-1.34-1.76c-0.586-0.577-1.462-0.698-2.178-1.089
		c-0.45-0.246-0.802-1.108-1.256-1.087c-0.738,0.03-0.482,0.74-0.668,1.924c-0.186,1.165-1.036,2.06-0.755,3.434
		c0.118,0.563,0.821,1.017,1.171,1.59c0.582,0.95,0.662,2.056,1.257,2.597c0.393,0.358,1.061,0.435,1.507,0.753
		c0.888,0.634,2.451,2.009,2.764,2.764c0.363,0.881,0.012,1.92,0.251,2.848c0.279,1.072,1.682,1.84,0.839,2.931
		c-0.802-0.148-1.501-0.673-2.18-1.089c-1.151-0.712-1.679-1.326-2.428-2.512c-0.22-0.347-0.545-0.685-0.67-1.004
		c-0.292-0.751-0.228-1.601-0.501-2.512c-0.235-0.784-1.144-2.024-1.844-2.681c-0.587-0.554-1.63-0.877-1.674-1.674
		c-0.061-1.123,0.38-2.445,0.336-3.769c-0.011-0.286-0.205-0.573-0.25-0.92c-0.089-0.643,0.063-1.43-0.086-2.011
		c-0.138-0.535-0.527-1.017-0.753-1.506c-0.224-0.482-0.452-0.966-0.668-1.592c-0.34-0.968-0.722-2.836-1.508-2.931
		c-0.839-0.101-1.669,1.573-2.764,1.592c-0.562,0.009-1.311-0.442-1.423-1.006c-0.106-0.514,0.264-1.032,0.251-1.59
		c-0.031-1.123-0.829-1.557-1.425-2.345c-0.241-0.319-0.305-0.768-0.504-1.005c-0.38-0.455-1.108-0.708-1.59-1.171
		c-0.459-0.444-0.962-1.083-1.173-1.508c-0.323-0.656-0.428-1.506-0.92-1.592c-0.472-0.082-1.017,0.594-1.507,0.755
		c-0.51,0.167-1.764,0.383-2.261,0.419c-1.681,0.116-3.045-0.332-2.846,1.675c-0.262,0.901-1.213,0.911-1.844,1.339
		c-0.802,0.545-1.385,1.639-2.26,2.512c-0.425,0.427-1.041,0.694-1.423,1.089c-0.32,0.33-0.419,0.859-0.755,1.173
		c-0.893,0.844-2.233,0.916-2.844,2.094c-0.036,1.391,0.657,2.444,0.501,3.766c-0.072,0.603-0.522,1.138-0.587,1.76
		c-0.053,0.533,0.219,1.106,0.086,1.675c-0.074,0.304-0.413,0.465-0.672,0.837c-0.233,0.334-0.326,0.778-0.499,1.005
		c-0.283,0.362-0.747,0.613-1.009,0.922c-0.425,0.503-0.514,0.863-0.92,0.922c-1.835,0.264-2.288-3.227-3.098-4.69
		c-0.375-0.672-1.135-1.279-1.508-2.093c-0.429-0.939-0.56-2.117-1.173-3.183c-0.52-0.91-1.239-1.821-1.59-2.764
		c-0.298-0.797-0.556-1.795-0.837-2.679c-0.298-0.935-0.622-2.11-0.67-2.846c-0.07-1.087,0.209-1.757-0.671-2.178
		c-0.807,0.19-1.167,1.005-2.093,1.005c-0.893,0-3.292-1.548-2.593-2.931c-0.585-0.829-2.059-1.283-3.184-2.26
		c-0.643-0.56-1.225-1.895-2.343-2.009c-0.309-0.032-0.711,0.142-1.006,0.167c-0.709,0.061-1.965-0.063-2.764,0
		c-1.004,0.08-2.245,0.306-3.517,0.167c-0.819-0.089-1.836-0.247-2.679-0.334c-1.072-0.11-2.497-0.364-3.096-0.922
		c-0.372-0.343-0.522-1.44-1.176-1.59c-0.776-0.18-1.203,0.421-1.924,0.586c-1.535,0.351-2.816-0.315-3.853-1.005
		c-0.735-0.488-1.406-0.742-1.926-1.089c-1.273-0.852-1.502-3.415-3.435-3.434c-0.672-0.006-1.742,0.415-1.842,1.174
		c-0.066,0.533,0.637,1.523,0.922,1.927c0.939,1.324,2.664,1.821,3.182,3.599c0.347,0.135,1.053-0.304,1.423,0.085
		c0.324,0.763-0.004,2.18,0.753,2.512c3.481,0.575,4.474-1.332,6.031-2.679c0.903,0.59,0.605,1.106,0.92,1.757
		c0.321,0.668,0.824,1.193,1.423,1.425c0.42,0.161,0.96,0.011,1.592,0.249c0.395,0.15,2.046,1.713,2.095,2.263
		c0.042,0.492-1.085,2.169-1.427,2.594c-0.332,0.415-0.846,0.63-1.004,1.005c-0.118,0.29-0.081,0.905-0.168,1.089
		c-0.154,0.334-0.906,0.77-1.34,1.172c-0.457,0.427-0.99,0.759-1.423,1.089c-0.529,0.406-0.857,0.964-1.423,1.174
		c-1.114,0.41-2.174,0.235-3.098,0.838c-0.605,0.393-0.607,1.281-1.339,1.757c-0.765,0.497-2.075,0.501-3.185,1.006
		c-0.712,0.324-1.14,0.952-1.755,1.172c-0.252,0.089-0.567,0.013-0.839,0.085c-0.557,0.142-1.071,0.537-1.592,0.668
		c-0.413,0.106-0.85,0.053-1.256,0.169c-1.29,0.372-2.472,1.683-3.768,0.92c-0.611-1.411-0.71-3.187-1.423-4.439
		c-0.363-0.639-1.078-0.835-1.338-1.506c-0.036-0.539,0.613-0.391,0.668-0.837c-0.213-0.905-1.068-1.328-1.59-2.095
		c-0.256-0.374-0.374-0.908-0.67-1.339c-0.998-1.453-2.967-2.208-3.35-4.02c-0.104-0.493,0.017-0.88-0.082-1.256
		c-0.165-0.62-0.584-1.271-1.006-1.757c-0.32-0.372-0.973-0.626-1.339-1.174c-0.243-0.362-0.296-0.871-0.503-1.256
		c-0.833-1.554-2.038-2.927-3.349-4.02c-0.683,0.099-1.417,0.146-1.757,0.588c0.34,1.096,0.863,2.013,1.423,2.931
		c0.512,0.835,1.239,1.736,1.59,2.679c0.131,0.349,0.108,0.805,0.252,1.172c0.526,1.328,2.182,1.736,2.512,3.267
		c0.223,1.026-0.049,1.736,0.252,2.762c0.288,0.985,1.742,1.567,2.345,2.512c0.49,0.772,0.495,1.863,0.837,2.597
		c0.501,1.074,1.903,1.539,2.931,2.261c0.922,0.649,1.582,1.649,2.343,2.345c0.448,0.406,1.064,0.48,1.173,0.922
		c0.142,0.567-0.238,0.757-0.336,1.254c0.643,0.67,1.269,1.907,2.345,2.011c0.443,0.042,1.001-0.404,1.675-0.504
		c0.34-0.049,0.721,0.053,1.004,0c0.446-0.08,0.835-0.478,1.343-0.586c0.855-0.184,1.846-0.11,2.929-0.252
		c1.023-0.133,1.728-0.998,2.512-0.753c0.861,0.945,0.243,2.018,0,2.931c-0.085,0.322-0.085,0.653-0.165,0.922
		c-0.453,1.491-1.637,2.595-2.18,3.935c-0.167,0.41-0.138,0.914-0.332,1.339c-0.624,1.342-1.924,2.667-2.933,3.768
		c-0.569,0.619-1.07,1.18-1.674,1.674c-0.6,0.495-1.335,0.764-2.011,1.256c-1.34,0.981-2.736,2.387-3.683,3.686
		c-0.366,0.503-0.541,1.083-0.922,1.508c-0.545,0.609-1.389,0.909-1.841,1.507c-0.358,0.472-0.594,1.326-1.005,2.176
		c-0.46,0.958-1.423,1.605-1.255,2.931c0.063,0.507,0.517,0.823,0.67,1.341c0.26,0.892,0.061,1.643-0.085,2.594
		c0.474,1.148,0.814,2.426,1.675,3.182c0.104,1.694-0.14,3.339,0,4.773c0.089,0.914,0.444,1.587,0.084,2.428
		c-0.317,0.742-1.533,2.047-2.26,2.512c-0.791,0.51-2.001,0.643-2.848,1.259c-0.589,0.427-1.078,1.176-1.675,1.677
		c-0.987,0.823-2.34,1.592-2.427,2.427c-0.051,0.48,0.379,1.208,0.501,1.673c0.328,1.237,0.645,3.015,0.085,4.354
		c-0.607,1.449-3.677,1.148-4.02,2.679c-0.104,0.465,0.205,0.837,0.167,1.341c-0.03,0.427-0.59,1.966-0.838,2.427
		c-0.37,0.694-1.211,1.004-1.757,1.592c-0.685,0.742-1.032,1.816-1.759,2.594c-0.987,1.061-2.322,2.18-3.601,3.098
		c-1.113,0.804-3.109,1.637-4.855,1.759c-1.017,0.072-2.108-0.239-3.182-0.083c-0.393,0.055-0.82,0.417-1.341,0.502
		c-0.302,0.049-0.611-0.053-0.92,0c-0.526,0.088-1.019,0.507-1.508,0.503c-1.085-0.013-2.478-1.307-2.512-2.595
		c-0.013-0.497,0.425-0.969,0.419-1.425c-0.009-0.535-0.664-1.205-1.174-2.178c-0.489-0.935-0.681-1.994-1.172-2.76
		c-0.52-0.816-1.207-1.203-1.59-1.844c-0.772-1.288-0.829-2.812-1.089-4.356c-0.085-0.503-0.429-1.049-0.504-1.675
		c-0.091-0.769,0.093-1.624-0.082-2.26c-0.135-0.49-0.679-0.989-1.006-1.592c-0.59-1.085-1.005-2.504-1.506-3.348
		c-0.471-0.791-1.423-1.615-1.508-2.512c-0.057-0.61,0.076-1.745,0.167-2.345c0.091-0.588,0.527-1.053,0.671-1.673
		c0.095-0.413-0.019-0.886,0.082-1.34c0.427-1.916,2.538-2.614,2.262-4.942c-0.118-0.988-0.816-1.475-0.922-2.597
		c-0.049-0.525,0.262-0.985,0.252-1.507c-0.015-0.707-0.613-1.757-0.922-2.428c-0.848-1.848-1.368-3.537-2.595-4.94
		c-0.668-0.765-1.544-1.305-2.094-2.011c-0.45-0.575-0.998-1.652-1.006-2.093c-0.009-0.478,0.368-0.777,0.503-1.257
		c0.176-0.617,0.188-1.787,0.419-2.764c0.106-0.448,0.59-1.533,0.503-2.26c-0.085-0.7-1.127-2.043-2.011-2.26
		c-1.169-0.29-2.372,0.374-3.851,0.251C213.649,134.131,213.744,132.023,211.906,131.755z M258.214,161.734
		c0.388-0.615,0.874-2.345,0-2.764c-0.057,0-0.112,0-0.167,0C257.673,159.665,257.275,161.345,258.214,161.734z M257.041,144.231
		c0.283-0.579,0.947-1.193,0.837-1.924c-0.241-1.614-3.259-0.819-3.599,0.334c-0.231,0.776,0.137,1.391-0.17,2.178
		c0.33,0.62,1.157,0.742,2.178,0.669C256.852,145.24,256.782,144.763,257.041,144.231z M251.934,152.858
		c0.332-0.615-0.529-1.017-0.67-1.676c-0.166-0.772,0.188-1.679-0.504-2.094c-0.082,0-0.167,0-0.249,0
		C249.903,150.46,250.762,152.725,251.934,152.858z M309.043,69.703c-0.315-0.632-1.22,0.186-0.835,0.755
		C308.775,70.494,308.978,70.166,309.043,69.703z M289.534,73.137c1.357-0.262,0.015-2.432-1.006-2.178
		C287.193,71.293,288.608,73.315,289.534,73.137z M283.336,83.938c0.418-2.903-1.844-3.121-2.261-5.191
		c0.193,0.025,0.093-0.241,0.252-0.252c0.55-0.264,1.381,0.423,1.672-0.249c0.006-0.992-1.252-1.732-2.512-1.256
		c-0.363-0.25-0.412-0.814-0.501-1.341c-0.949-0.565-3.299-1.8-3.267-2.931c0.027-0.93,1.228-1.453,2.596-1.423
		c0.577-0.438,0.206-1.782-0.334-2.094c-2.165-0.474-3.319-0.154-4.691,0.838c-0.657,0.476-1.391,0.804-1.759,1.089
		c-0.338,0.262-0.791,0.979-0.752,1.339c0.053,0.518,0.795,0.823,1.089,1.508c0.15,0.353,0.118,0.795,0.251,1.089
		c0.366,0.808,1.303,1.33,2.009,2.009c0.499,0.48,1.899,1.52,1.926,2.093c0.026,0.478-0.43,0.584-0.584,1.089
		c-0.158,0.495-0.34,1.664-0.251,2.093c0.183,0.92,1.136,0.952,2.006,1.341c0.865,0.385,1.699,1.066,2.597,1.087
		C281.782,84.801,282.801,84.495,283.336,83.938z M263.657,77.91c2.27-0.41,1.233-2.328,0.083-3.013
		c-0.871-0.52-1.913-0.972-2.931-1.592c-0.59-0.359-2.832-1.038-2.846-1.757c-0.017-0.787,1.668-1.045,1.004-2.43
		c-1.146-0.279-3.872,0.161-3.683,1.423c0.108,0.729,0.973,0.325,1.171,1.089c-0.82,0.292-1.819,1.057-2.679,0.922
		c-1.026-0.161-1.29-1.421-1.841-2.178c-0.797,0.026-1.322-0.772-2.261-0.67c-0.985,0.108-1.507,1.537-2.01,2.263
		c-0.267,0.38-0.692,0.577-0.838,0.92c-0.086,0.207,0.009,0.537-0.082,0.838c-0.288,0.93-1.093,1.271-1.007,2.093
		c0.079,0.725,0.867,1.051,0.923,1.675c-0.056,0.643-1.088,0.309-1.005,1.089c1.499,1.237,1.582-0.584,2.345-0.838
		c0.613-0.205,1.816,0.169,2.594,0c0.628-0.137,1.123-0.736,1.842-1.004c0.44-0.165,0.984-0.311,1.592-0.337
		c2.664-0.11,4.384,1.624,6.699,1.675C261.491,78.094,262.862,78.053,263.657,77.91z M258.297,87.791
		c0.046-0.899-0.343-1.576-0.419-2.846c-1.546-0.933-2.701,0.865-4.27,0.668c-0.964-0.121-1.656-1.244-2.679-1.087
		c-0.565,0.085-0.844,0.814-1.425,0.92c-1.197,0.22-1.742-0.958-3.013-0.501c-1.793-1.366-2.594-3.591-3.015-6.113
		c-0.976-1.281-2.467-0.239-3.182,0.586c-0.44-0.004-0.99-0.243-1.087,0.252c-0.33,1.548,2.189,1.713,2.176,2.764
		c-0.008,0.683-0.983,0.62-1.423,1.087c-0.467,0.497-0.157,0.939-0.753,1.256c-1.652,0.199-2.199-0.704-2.178-2.176
		c-0.713-1.083-1.613-1.871-2.26-2.763c-0.239-0.33-0.596-0.844-0.67-1.341c-0.06-0.391,0.186-0.888,0.085-1.339
		c-0.182-0.799-1.671-1.402-2.597-1.842c-0.99-0.472-2.229-0.918-2.931-1.508c-0.497-0.419-0.732-1.146-1.172-1.423
		c-0.374-0.235-0.839-0.186-1.174-0.419c-0.459-0.321-0.383-0.857-1.004-1.007c-0.315-0.116-0.802,0.313-1.005,0.588
		c-0.408,1.827,1.078,1.952,1.757,2.762c0.467,0.556,0.7,1.394,1.174,1.759c0.505,0.391,1.193,0.319,1.842,0.586
		c0.449,0.184,0.74,0.743,1.172,1.005c0.799,0.486,2.083,0.571,2.178,1.508c-0.497,0.338-1.624-0.493-2.009,0.336
		c-0.099,0.544,0.431,0.823,0.419,1.339c-0.021,0.825-0.937,1.728-1.76,1.592c-0.082-0.491,0.438-0.892,0.419-1.425
		c-0.036-1.066-2.178-2.692-3.265-3.181c-0.51-0.23-1.129-0.243-1.593-0.503c-0.823-0.463-2.263-1.601-2.764-2.26
		c-0.599-0.793-1.11-2.261-2.428-2.178c-0.537,0.034-0.981,0.526-1.423,0.755c-0.402,0.205-0.846,0.395-1.256,0.668
		c-0.489,0.324-0.886,0.651-1.341,0.67c-1.051,0.045-1.943-0.78-2.846-0.586c-0.304,0.066-0.558,0.338-0.922,0.671
		c-0.013,0.488,0.146,0.801,0.085,1.338c-0.273,0.472-1.083,0.442-1.675,0.755c-0.867,0.457-1.639,1.396-2.345,2.093
		c-0.455,0.448-0.865,0.818-0.922,1.172c-0.045,0.277,0.234,0.802,0.169,1.174c-0.074,0.404-0.833,1.241-1.341,1.59
		c-0.296,0.203-0.689,0.23-1.005,0.419c-0.66,0.391-0.956,0.901-1.508,1.005c-1.464,0.273-4.124-0.294-4.102,1.256
		c0.013,1.036,1.411,1.04,2.261,1.004c1.184-0.046,2.191,0.252,2.846,0.085c0.452-0.114,0.947-0.622,1.423-0.837
		c0.3-0.135,0.611-0.137,0.838-0.252c0.501-0.252,0.785-0.66,1.174-0.838c0.766-0.349,2.191-0.622,3.013-0.67
		c1.129-0.066,2.309,0.116,3.768,0c0.52-0.04,1.034-0.374,1.592-0.419c0.911-0.072,2.11,0.36,2.846,0.336
		c0.51-0.017,1.079-0.512,1.675-0.503c0.675,0.011,1.385,0.491,1.508,0.922c0.07,0.245-0.142,0.636-0.084,1.005
		c0.097,0.609,0.62,0.86,0.588,1.256c-0.045,0.525-1.351,1.224-1.174,1.842c0.116,0.397,1.053,0.812,1.508,1.089
		c0.476,0.29,1.279,0.692,1.842,0.753c0.473,0.053,0.892-0.131,1.341-0.082c0.721,0.078,1.888,0.516,2.345,0.837
		c0.787,0.554,0.677,1.442,1.59,1.757c0.389,0.136,1.091,0.059,1.59,0.169c1.22,0.264,2.125,1.275,3.015,1.171
		c1.402-0.163,0.763-1.484,0.922-2.427c0.357-2.138,4.534-2.041,5.358-0.588c0.611,0.163,1.146,0.025,1.842,0.252
		c0.402,0.131,0.702,0.571,1.089,0.67c0.292,0.074,0.717-0.042,1.089,0c1.605,0.182,3.06,1.377,4.439,1.172
		c0.875-0.129,1.51-0.952,2.343-1.005c1.602-0.099,2.628,1.193,4.356,0.586c1.271-0.446,0.988-1.763,1.423-3.098
		C257.679,89.124,258.263,88.491,258.297,87.791z M348.568,59.236c0.332-1.066-0.184-2.142-0.838-2.846
		c-0.966,0.167-0.268,1.172-0.334,1.759c-0.095,0.831-0.977,1.409-0.922,2.261c-0.321,0.376-0.871,0.524-0.919,1.171
		c0.532,0.368,0.765-0.289,1.171-0.67C347.367,60.31,348.346,59.955,348.568,59.236z M326.628,30.178
		c-0.921,0-1.269,0.364-1.841,0.67c-0.315,0.167-0.956,0.26-0.753,0.753C324.838,31.504,326.436,31.141,326.628,30.178z
		 M291.291,40.479c1.968,0.459,2.893-1.764,1.59-3.015c-0.305-0.292-1.332-0.406-1.756-1.087c-0.513-0.819-0.442-1.912-1.677-1.675
		c-0.013,0.097,0.015,0.237-0.085,0.249c-0.116,1.831,2.55,2.292,2.512,3.768C291.858,39.493,291.039,39.576,291.291,40.479z"/>
	<path style="fill:#2D93BA;" d="M263.74,37.296c-0.243-0.905,1.474-0.759,1.173,0.085C264.645,37.633,263.911,37.611,263.74,37.296z
		"/>
	<path style="fill:#2D93BA;" d="M253.441,87.373c0.038-0.692,1.616-0.945,1.924-0.334C255.262,87.711,253.765,88.174,253.441,87.373
		z"/>
	<path style="fill:#2D93BA;" d="M224.719,82.852c0.873-0.707,2.816-0.228,4.02-0.252c-0.226,0.641-0.26,1.472-0.755,1.842
		C226.611,84.194,225.332,83.856,224.719,82.852z"/>
	<path style="fill:#2D93BA;" d="M218.605,78.413c1.151-1.201,2.358-0.567,1.927,1.757c-0.275,0.693-1.472,1.62-2.011,0.588
		C218.705,79.946,218.627,79.348,218.605,78.413z"/>
	<path style="fill:#2D93BA;" d="M220.28,75.734c0.095,0.708-0.201,1.026-0.586,1.256C218.591,76.795,219.43,74.814,220.28,75.734z"
		/>
	<path style="fill:#2D93BA;" d="M204.036,58.734c0.097-0.478-0.277-1.072-0.755-1.341c-0.275-0.155-0.696-0.082-1.005-0.252
		c-0.816-0.449-1.112-1.383-1.59-1.59c0.061-0.918-0.252-1.582,0-2.178c0.152-0.362,1.252-1.383,1.842-1.59
		c0.732-0.258,1.497-0.027,1.926-0.586c0.192-0.027,0.322,0.013,0.419,0.082c-0.004,0.528-0.448,0.615-0.503,1.089
		c0.103,0.761,1.444,0.285,1.59,1.004c-0.127,0.783-0.831,0.937-0.837,1.508c-0.003,0.497,1.015,1.44,1.508,2.094
		c0.368,0.484,1.011,0.844,1.34,1.34c0.288,0.434,0.351,0.95,0.586,1.172c0.44,0.417,1.434,0.486,1.508,1.089
		c0.097,0.799-0.994,1.114-0.838,2.009c-1.15,0.903-3.068,0.436-4.942,0.67c-0.848,0.108-1.783,0.951-2.679,0.252
		c-0.207-0.562,0.744-0.639,0.838-1.172c-0.066-0.495-0.692-0.425-0.838-0.838c0.243-0.651,1.002-0.784,0.922-1.759
		C202.995,59.229,203.894,59.422,204.036,58.734z"/>
	<path style="fill:#2D93BA;" d="M197.755,56.723c1.118-0.683,3.072-0.161,3.18,0.67c0.082,0.628-0.594,0.719-0.838,1.423
		c-0.218,0.641,0.042,1.402-0.249,1.844c-0.256,0.382-0.952,0.359-1.425,0.501c-1.053,0.315-3.087,1.552-3.935,0.167
		c0.123-0.742,0.842-0.89,1.089-1.506c0.015-0.484-0.501-0.74-0.419-1.256c0.101-0.632,0.577-0.415,1.256-0.671
		C196.907,57.709,197.119,57.113,197.755,56.723z"/>
	<path style="fill:#2D93BA;" d="M140.561,38.552c0.176,0.744-2.204,1.717-2.43,0.755C137.951,38.538,139.954,37.575,140.561,38.552z
		"/>
	<path style="fill:#2D93BA;" d="M137.797,227.3c-0.419,0-0.838,0-1.256,0C136.767,227.163,137.571,227.163,137.797,227.3z"/>
	<path style="fill:#2D93BA;" d="M134.029,32.608c0.108-0.116,0.395-0.116,0.504,0c-0.083,0.197-0.148,0.41-0.504,0.334
		C134.029,32.83,134.029,32.718,134.029,32.608z"/>
	<path style="fill:#2D93BA;" d="M126.577,45.922c0.017,0.461-1.664,1.224-1.844,0.334c-0.03-0.157,0.009-0.47,0.336-0.668
		C125.515,45.313,126.56,45.469,126.577,45.922z"/>
	<path style="fill:#2D93BA;" d="M91.74,123.715c-0.044,0.125-0.125,0.211-0.167,0.336C90.683,124.019,91.487,122.882,91.74,123.715z
		"/>
	<path style="fill:#2D93BA;" d="M57.742,65.182c0.588-0.343,1.151,0.516,0.755,0.922C57.849,66.229,57.684,65.488,57.742,65.182z"/>
	<path style="fill:#2D93BA;" d="M149.017,68.28c-0.391-0.097-0.924-0.078-1.423-0.167c-0.427-0.076-0.935-0.203-1.338-0.252
		c-1.034-0.123-2.153,0.178-2.764-0.419c0.996-1.324,2.32-2.629,3.601-3.768c0.38-0.34,1.199-0.573,1.005-1.256
		c-0.713-0.626-1.588,0.038-2.261,0.419c-0.706,0.397-1.548,0.971-2.345,1.089c-1.385,0.205-3.222-0.406-4.354,0.334
		c-0.157,0.632,1.288,0.387,1.087,1.341c-0.554,0.091-1.078,0.135-1.506-0.252c-0.389-0.351-0.167-0.878-0.419-1.089
		c-0.429-0.355-2.043-0.453-2.764-0.334c-0.88,0.144-1.658,0.67-1.759,1.423c1.057,0.495,2.8-0.51,3.182,0.755
		c-0.579,1.043-1.943,1.616-1.759,3.014c0.072,0.539,0.713,1.26,1.174,1.341c0.463,0.08,0.723-0.379,1.172-0.336
		c0.474,0.045,0.366,0.586,0.922,0.503c0.806-0.345,1.252-1.476,2.176-1.423c1.108,1.345-1,2.001-2.176,2.428
		c-1.341,0.486-3.083,0.744-4.105,1.174c-0.535,0.224-2.561,2.182-2.846,0.668c-0.205-1.091,1.002-0.776,1.256-1.675
		c-1.297-0.252-2.504,0.558-3.684,1.007c-1.683,0.637-4.536,1.04-4.942,2.931c-0.081,0.378,0.165,1.087-0.082,1.339
		c-0.201,0.203-1.402,0.239-1.927,0.419c-0.808,0.277-1.512,0.869-2.011,1.005c-0.376,0.103-0.933,0.074-1.172,0.169
		c-0.666,0.258-0.911,1.159-1.675,1.757c-0.313,0.245-1.007,0.423-1.256,0.67c-0.433,0.432-0.49,1.512-1.256,1.675
		c-0.486,0.042-0.882-0.366-1.341-0.084c-0.055,1.068,0.376,2.521-0.082,3.601c-0.992,0.808-2.081,1.381-3.349,2.093
		c-0.702,0.395-1.33,0.497-2.178,0.922c-0.601,0.3-1.15,1.015-1.842,1.423c-1.599,0.941-3.529,2.055-3.517,4.439
		c0.002,0.516,0.269,1.072,0.334,1.675c0.04,0.355-0.042,0.702,0,1.089c0.099,0.875,0.734,1.99,0,2.594
		c-1.127-0.463-2.561-0.62-3.35-1.423c-0.216-0.827,0.436-1.508,0.337-2.261c-0.08-0.605-0.931-1.681-1.425-1.759
		c-0.51-0.081-0.979,0.461-1.506,0.419c-0.626-0.049-1.208-0.911-2.011-1.005c-1.178-0.137-2.045,0.269-3.349,0.085
		c-1.263,0.675-1.633,1.876-3.18,1.757c-0.546-0.04-1.045-0.456-1.675-0.586c-0.683-0.142-1.719-0.383-2.43-0.334
		c-1.425,0.095-2.459,1.121-3.683,1.757c-1.081,0.562-2.61,1.263-2.931,2.43c-0.176,0.628-0.028,1.512-0.252,2.093
		c-0.148,0.383-0.472,0.723-0.671,1.087c-0.939,1.715-1.717,3.982-1.004,6.45c0.106,0.366,1.038,2.43,1.423,2.846
		c0.432,0.463,1.703,1.159,2.428,1.172c0.613,0.012,1.333-0.311,1.927-0.419c0.689-0.123,1.552-0.133,2.178-0.334
		c1.81-0.579,1.453-3.028,3.265-3.853c0.791-0.358,1.707-0.429,3.098-0.501c0.442,0.373,0.649,1.023,0.588,1.59
		c-0.046,0.427-0.452,0.814-0.67,1.423c-0.19,0.535-0.23,1.161-0.419,1.592c-0.249,0.565-0.806,0.977-1.005,1.508
		c-0.131,0.345-0.059,0.774-0.167,1.087c-0.192,0.552-0.93,0.941-0.588,1.508c1.793,0.713,3.963-0.203,5.527,0.085
		c0.66,0.121,2.022,0.909,2.009,1.926c-0.009,0.762-0.588,1.26-0.671,2.094c-0.101,1.049-0.539,2.333-0.586,3.18
		c-0.074,1.389,2.038,3.787,3.517,3.768c1.592-0.021,2.521-1.584,4.439-0.753c0.637,0.275,1.309,1.307,2.011,1.256
		c0.58-0.042,1.455-1.057,1.842-1.759c0.471-0.856,0.505-1.578,1.339-2.009c0.899-0.465,1.613-0.241,2.764-0.67
		c0.514-0.191,0.96-0.518,1.423-0.838c0.406-0.279,0.833-1.011,1.341-0.503c0.668,0.668-0.818,1.045-0.252,1.759
		c1.161,0.616,1.755-1.144,2.597-1.172c0.268-0.009,1.197,0.523,1.675,0.838c0.653,0.429,0.875,1.032,1.59,1.172
		c0.459,0.091,1.197-0.176,1.842-0.085c0.854,0.122,1.364,0.856,2.011,0.837c0.789-0.021,1.167-0.88,1.842-1.005
		c1.478-0.271,2.028,0.165,2.679,1.089c0.729,0.127,0.755-0.844,1.423-0.501c-0.366,0.729,0.125,1.066,0.419,1.675
		c0.19,0.391,0.158,0.668,0.336,0.838c0.4,0.38,1.172,0.38,1.757,0.753c0.618,0.389,0.966,1.112,1.675,1.926
		c0.73,0.833,1.956,1.696,2.931,1.757c0.92,0.059,1.668-0.26,2.43-0.167c1.732,0.213,2.808,1.079,4.02,2.011
		c0.677,0.52,1.288,0.881,1.506,1.505c0.152,0.435,0.079,1.019,0.252,1.508c0.37,1.042,1.89,1.545,1.341,3.349
		c0.251,0.528,0.816,0.719,1.423,1.088c0.486,0.298,0.897,0.92,1.423,1.005c0.34,0.055,0.711-0.102,1.005-0.085
		c0.952,0.068,1.605,0.436,2.43,0.755c0.512,0.197,1.167,0.275,1.508,0.505c0.425,0.285,0.48,1.25,1.004,1.504
		c0.343,0.166,1.104-0.064,1.675,0c0.899,0.106,2.119,0.655,2.931,0.672c0.493,0.01,0.901-0.203,1.339-0.169
		c2.051,0.158,3.214,2.611,5.194,3.35c0.613,0.23,1.586,0.07,2.009,0.252c0.742,0.321,1.368,2.592,1.423,3.599
		c0.169,3.043-2.168,4.02-3.517,6.031c-0.281,0.421-0.438,1.087-0.838,1.675c-0.804,1.182-1.698,1.427-1.59,3.601
		c0.03,0.597,0.334,1.178,0.334,1.842c0,0.81-0.07,1.869-0.252,2.596c-0.137,0.555-0.596,1.004-0.67,1.508
		c-0.074,0.51,0.15,0.905,0.085,1.34c-0.072,0.482-0.554,1.163-0.922,1.84c-0.774,1.43-0.943,3.11-2.512,3.683
		c-0.922,0.338-2.172,0.15-3.18,0.503c-0.408,0.144-0.924,0.52-1.425,0.753c-1.457,0.679-3.534,1.594-3.935,3.098
		c-0.358,1.34,0.499,2.408,0.252,3.937c-0.26,0.455-0.611,0.91-1.005,1.423c-0.362,0.476-0.541,1.034-0.922,1.508
		c-0.504,0.63-1.286,0.909-1.59,1.759c-0.104,0.288-0.038,0.63-0.167,1.087c-0.049,0.169-0.358,0.431-0.504,0.753
		c-0.135,0.298-0.129,0.679-0.251,0.924c-0.383,0.772-1.521,2.529-2.345,2.763c-1.738,0.487-3.571-0.738-4.773-0.505
		c0.173,0.84,0.783,0.753,1.174,1.341c0.228,0.347,0.353,0.806,0.668,1.172c0.376,0.435,0.708,0.596,0.755,1.088
		c0.095,1.032-0.708,2.071-1.256,2.43c-0.501,0.328-1.542,0.52-2.43,0.669c-0.619,0.104-2.218,0.11-2.512,0.505
		c-0.431,0.582,0.228,2.018-0.082,2.594c-0.626,1.225-2.309-0.034-3.182,0.334c-0.074,0.632,0.158,1.295,0.67,1.59
		c0.526,0.309,1.326-0.093,1.675,0.504c-0.171,0.833-1.068,0.941-1.256,1.759c0.024,0.799,0.269,1.008,0.167,1.505
		c-0.218,1.076-1.891,1.032-1.842,2.178c0.072,1.715,3.29,1.013,3.349,2.681c0.034,1.011-0.922,1.021-1.256,2.007
		c-0.18,0.528,0.104,0.651,0,1.088c-0.14,0.594-0.838,0.766-0.838,1.423c-0.002,0.802,1.172,1.684,1.757,2.345
		c0.573,0.65,1.309,1.575,2.094,2.011c1.176,0.649,2.927,0.503,3.434,1.674c-0.161,0.704-0.84,0.893-1.508,1.087
		c-0.055,0-0.112,0-0.167,0c-0.226-0.137-1.03-0.137-1.256,0c-0.391,0-0.783,0-1.172,0c-1.121-0.516-2.481-0.85-3.853-1.338
		c-0.495-0.176-1.053-0.594-1.591-0.835c-0.404-0.185-0.858-0.256-1.173-0.421c-0.721-0.378-1.533-1.605-2.261-2.092
		c-0.442-0.298-1.135-0.455-1.423-0.757c-0.275-0.285-0.425-0.905-0.67-1.254c-0.271-0.385-0.768-0.666-1.089-1.089
		c-0.695-0.924-1.584-2.168-1.59-2.848c-0.006-0.67,0.639-1.125,0.419-1.755c-0.205-0.594-1.491-0.465-1.675-1.175
		c-0.112-0.427,0.37-1.148,0.334-1.756c-0.019-0.353-0.679-0.833-0.418-1.342c0.3-0.586,0.867,0.049,1.34-0.25
		c-0.355-1.209,0.027-3.155-1.173-3.519c-0.618,0.52,0.63,1.69-0.419,2.011c-1.013-0.45-0.778-1.784-1.005-2.764
		c-0.148-0.647-0.469-1.229-0.501-1.926c-0.017-0.366,0.144-0.791,0.082-1.17c-0.178-1.129-1.434-2.053-1.508-3.185
		c-0.034-0.545,0.334-1.006,0.419-1.59c0.059-0.395-0.055-0.839,0-1.256c0.074-0.533,0.368-1.021,0.419-1.507
		c0.099-0.92-0.002-2.498-0.167-3.267c-0.207-0.966-0.975-1.789-1.089-2.844c-0.04-0.383,0.127-1.019,0.085-1.508
		c-0.04-0.455-0.29-0.905-0.334-1.425c-0.042-0.477,0.118-0.932,0.167-1.507c0.089-1.051-0.205-2.223-0.167-3.267
		c0.01-0.307,0.171-0.535,0.167-0.836c-0.011-0.864-0.298-1.736-0.336-2.596c-0.066-1.59,0.176-2.717-0.082-4.187
		c-0.195-1.113-0.436-2.817-0.838-3.515c-0.448-0.78-2.21-2.104-3.098-2.599c-0.586-0.325-1.288-0.438-1.926-0.753
		c-1.364-0.668-4.008-2.083-4.606-3.432c-0.173-0.392-0.15-0.908-0.336-1.341c-0.364-0.859-1.132-1.601-1.675-2.43
		c-1.034-1.58-1.869-3.561-2.931-5.192c-0.537-0.829-1.002-1.768-1.59-2.427c-0.345-0.389-1.448-0.753-1.59-1.341
		c-0.188-0.774-0.761-1.837-0.67-2.427c0.12-0.802,1.677-1.449,1.675-2.176c-0.002-0.622-0.831-0.983-1.005-1.507
		c-0.423-1.281,0.248-2.033,0.753-3.1c0.167-0.349,0.33-0.913,0.503-1.171c0.306-0.461,0.93-0.59,1.339-1.089
		c0.228-0.279,0.372-0.861,0.67-1.256c0.637-0.846,1.664-1.163,1.927-1.926c0.213-0.622,0.338-3.732,0.082-4.773
		c-0.146-0.601-0.706-1.103-0.92-1.675c-0.378-1.011-0.467-2.114-1.508-2.093c-0.643,0.013-1.095,0.724-1.508,1.172
		c-0.099,0.596-0.046,1.241-0.67,1.423c-0.952,0.281-1.318-1.003-2.428-1.339c-0.442-0.135-1.146-0.127-1.423-0.251
		c-0.81-0.364-1.072-1.551-1.926-2.011c-0.715-0.383-1.326-0.249-1.759-0.838c-0.18-0.404-0.038-1.133-0.082-1.675
		c-0.918-0.537-1.696-2.539-2.764-3.013c-0.708-0.315-1.793-0.285-2.679-0.586c-0.416-0.141-0.738-0.323-1.174-0.418
		c-0.537-0.121-1.089-0.127-1.506-0.337c-1.658-0.823-2.552-3.489-4.606-3.432c-0.875,0.023-1.719,0.842-2.512,0.837
		c-0.789-0.004-2.11-0.63-3.1-1.089c-1.028-0.478-2.165-0.738-3.014-1.172c-0.685-0.351-1.161-0.992-1.759-1.258
		c-0.459-0.203-1.129-0.239-1.506-0.416c-0.535-0.254-1.093-0.795-1.759-1.258c-0.632-0.438-1.315-1.106-1.341-1.673
		c-0.027-0.656,0.603-1.214,0.671-1.844c0.216-1.994-1.254-3.428-2.178-4.606c-0.685-0.875-1.488-1.618-2.176-2.428
		c0.038-0.537,0.038-0.634,0-1.172c-0.52-0.505-0.958-1.254-1.508-2.011c-0.497-0.683-1.466-1.411-1.59-2.176
		c-0.155-0.941,0.357-1.768,0-2.681c-0.596-1.516-2.7-0.831-2.43,1.173c0.076,0.552,0.854,1.294,1.089,1.842
		c0.241,0.558,0.195,1.254,0.419,1.926c0.216,0.645,0.865,1.201,1.089,1.926c0.355,1.146,0.345,2.381,0.67,3.098
		c0.288,0.637,1.347,1.239,0.753,2.009c-0.793,0.165-1.098-0.628-1.59-1.089c-0.275-0.256-1.271-0.742-1.423-1.339
		c-0.127-0.493,0.313-1.157,0.167-1.759c-0.288-1.182-2.673-1.212-2.681-2.428c-0.004-0.763,0.998-0.854,1.007-1.592
		c0.006-0.808-1.102-1.491-1.341-2.176c-0.218-0.628-0.254-1.628-0.334-2.512c-0.079-0.829,0.023-1.789-0.169-2.43
		c-0.171-0.575-1.036-1.366-1.59-1.675c-0.734-0.408-1.315-0.239-1.675-0.837c-0.313-0.522-0.518-1.613-0.586-2.176
		c-0.121-1.007-0.027-2.108-0.085-3.183c-0.055-1.076-0.165-2.108,0-3.265c0.414-0.81,1.169-1.21,1.592-2.011
		c0.294-0.558,0.336-1.248,0.668-1.842c0.613-1.093,1.95-2.104,2.848-3.182c0.968-1.161,1.861-2.273,2.428-3.601
		c0.203-0.471,0.749-1.516,0.67-2.093c-0.11-0.806-1.628-1.47-1.508-2.428c0.076-0.594,0.922-0.586,1.174-1.172
		c0.129-0.302,0.246-1.146,0.252-1.508c0.013-0.808-0.414-1.649-0.252-2.512c0.137-0.736,1.233-1.034,0.671-1.842
		c-0.559-0.799-1.561,0.431-2.178-0.085c-0.567-0.476,0.114-1.051,0.167-1.926c0.021-0.349-0.203-0.747-0.167-1.004
		c0.051-0.374,0.78-1.005,0.586-1.256c-0.453-0.573-0.96-2.028-1.927-2.512c-1.228-0.617-2.559-0.201-4.269-0.503
		c-1.049-0.184-1.546-1.165-2.512-1.087c-0.596,0.046-0.939,0.729-1.759,1.087c-0.812,0.355-1.874,0.234-2.679,0.419
		c-0.799,0.184-1.184,0.736-2.011,0.67c-0.689-0.053-0.693-0.674-1.505-0.753c-0.317-0.032-0.918,0.197-1.423,0.252
		c-1.294,0.135-3.631,0.201-4.942-0.085c-1.199-0.26-1.939-0.641-3.265-1.256c-0.996-0.461-2.844-1.03-2.764-1.759
		c0.051-0.47,1.751-0.966,2.428-1.172c1.091-0.332,1.764-0.869,2.597-0.922c0.321-0.019,0.744,0.199,1.172,0.17
		c0.429-0.032,0.958-0.427,1.508-0.504c1.169-0.163,2.818,0.059,2.679-1.089c-0.888-0.702-4.51,0.52-4.606-1.005
		c-0.057-0.922,1.375-1.201,2.43-1.423c0.96-0.203,2.417-0.546,3.265-0.503c0.956,0.049,2.214,1.118,2.764-0.083
		c0.266-0.854-0.326-1.571-0.504-2.263c0.711-0.981,2.019-0.859,3.015-1.004c1.138-0.167,2.066-0.37,3.182-0.838
		c0.979-0.41,2.02-0.685,3.181-0.838c1.138-0.148,2.241-0.577,3.267-0.67c0.844-0.076,1.618-0.009,2.427-0.167
		c0.717-0.139,1.474-0.537,2.263-0.501c0.527,0.024,0.977,0.408,1.506,0.501c0.497,0.087,1.066-0.025,1.592,0.085
		c0.404,0.085,0.768,0.357,1.172,0.419c0.634,0.095,1.315-0.089,1.926,0c0.562,0.08,1.041,0.431,1.59,0.501
		c1.29,0.167,2.766-0.068,4.02,0.169c0.476,0.089,0.905,0.324,1.423,0.419c0.491,0.089,1.03-0.013,1.508,0.082
		c0.666,0.133,1.222,0.763,1.926,0.838c1.296,0.135,2.751-0.563,4.102-0.671c0.979-0.076,1.988,0.04,3.015-0.167
		c0.935-0.188,1.84-0.55,2.679-0.586c0.456-0.019,0.839,0.14,1.256,0.084c0.434-0.059,0.954-0.579,1.423-0.503
		c0.624,0.1,0.514,0.888,1.174,1.089c0.73-0.379,1.457,0.025,2.26,0c0.783-0.027,1.482-0.387,2.345-0.252
		c1.524,0.239,3.654,1.732,4.855,0.922c0.303-0.205,0.231-0.558,0.504-1.089c0.37-0.721,1.099-1.569,0.922-2.597
		c-1.679,0.027-3.282,0.848-5.193,0.922c-1.931-1.209,0.516-1.96,1.926-2.512c1.163-0.457,2.083-1.47,3.519-1.675
		c1.171-0.169,2.459,0.258,3.85,0.419c0.812,0.093,1.624-0.057,2.093,0.082c0.823,0.248,1.245,1.062,1.927,1.256
		c0.294,0.085,0.776,0.076,1.172,0.169c0.753,0.173,1.427,0.571,2.178,0c0.59,0.106,0.66,0.734,1.256,0.838
		c0.556-0.3,0.985-1.064,1.842-1.256c0.372-0.085,0.763,0.063,1.172,0c0.683-0.11,1.592-1.034,2.011-0.169
		c-0.171,0.605-1.085,0.696-1.592,1.173c-0.45,0.425-1.144,1.4-1.087,1.842c0.1,0.799,1.296,0.49,1.339,1.508
		c-0.178,0.586-0.859,0.323-1.423,0.586c-0.516,0.239-0.708,0.734-1.256,0.838c-1.522,0.287-2.785-0.383-4.102-0.334
		c-0.061,0.571,0.651,0.903,1.004,1.087c1.195,0.628,2.168,0.541,3.851,0.504c0.863-0.019,1.855,0.258,2.597-0.252
		c0.469-0.321,0.444-1.03,0.837-1.423c0.474-0.471,1.565-0.951,2.261-0.837c0.38,0.064,0.915,0.516,0.922,0.837
		c0.013,0.761-1.076,0.518-1.089,1.341c0.708,0.425,2.58-0.465,2.679-1.173c0.072-0.516-0.609-0.814-0.586-1.339
		c0.04-0.878,1.233-0.863,1.089-1.759c-0.575-0.453-1.176,0.097-1.76,0c-0.823-0.138-1.563-1.123-1.926-1.76
		c0.364-0.45,1.125-0.15,1.675-0.082c0.616-0.852,1.761-1.184,3.35-1.341c0.564-0.055,1.317-0.279,1.592,0.252
		c0.136,0.793-1.173,1.269-0.922,2.178c1.127,0.281,1.497-1.239,2.43-1.844c0.41-0.267,0.998-0.444,1.59-0.668
		c0.516-0.197,1.085-0.683,1.508-0.67c0.463,0.012,0.546,0.393,1.005,0.586c0.413,0.173,0.952-0.118,1.089,0.419
		c-0.971,1.682-4.589,0.715-5.528,2.428c0.209,1.148-0.567,2.244,0.085,3.015c0.465,0.55,1.514,0.176,1.758,0.753
		c0.328,0.772-1.015,0.772-0.668,1.675c0.886,0.531,1.941-0.506,2.762-0.92c0.88-0.446,1.992-0.973,2.093-2.011
		c-0.442-0.85-2.091-0.192-2.343-1.087c-0.137-0.486,0.505-1.576,0.668-1.759c0.874-0.979,3.923-2.373,6.113-2.178
		c0.417,0.038,0.838,0.292,1.256,0.336c1.44,0.148,3.14-0.622,4.272,0c0.909-0.531,2,0.072,3.265-0.085
		c0.975,0.575,0.706,1.8,2.178,2.345c0.4,0.148,0.899,0.042,1.423,0.167c0.389,0.093,0.81,0.55,1.256,0.755
		c0.634,0.288,1.121,0.222,1.256,0.668c0.133,0.438-0.461,0.721-0.419,1.174c0.362,0.298,0.059,0.747,0.252,1.172
		c0.361,0.776,1.273,0.719,2.176,1.089c0.635,0.26,1.988,1.057,1.927,1.675c-0.04,0.414-1.271,1.142-1.675,1.341
		c-0.286,0.139-1.698,0.822-2.176,0.753c-0.791-0.116-1.1-1.717-2.178-1.675c-0.47,0.019-0.911,0.302-0.922,0.922
		c-0.017,1.1,1.231,1.142,1.256,2.093c0.034,1.138-0.622,1.216-1.59,1.924c-0.694-0.281-1.277-0.677-2.178-0.753
		c-0.535,0.636,0.88,0.865,0.419,1.675c-1.345,0.285-2.371-0.381-3.599-0.753c-0.385-0.116-0.939-0.07-1.256-0.252
		c-0.476-0.275-0.615-1.089-1.006-1.508c-0.453-0.486-1.356-1.176-2.094-1.172c-1.034,0.002-2.531,1.288-3.349,0.082
		c0.567-1.918,3.252-0.495,5.024-1.171c0.66-0.252,0.886-0.95,1.425-1.257c1.083-0.617,2.842-0.704,2.679-1.926
		c-0.082-0.616-0.943-0.607-1.423-0.922c-0.656-0.427-1.157-1.935-2.093-2.009c-0.482-0.038-0.829,0.37-1.341,0.419
		c-1.083,0.101-2.288-0.436-3.265,0c-0.455,0.26-0.148,0.677-0.503,1.172c-0.292,0.406-0.981,0.52-1.256,0.922
		c-0.322,0.471-0.256,1.057-0.671,1.423c-0.687,0.609-2.142,0.706-3.013,1.005c-0.389,0.133-0.88,0.59-1.256,0.588
		c-0.691-0.004-0.987-0.93-1.759-0.588c-0.067,0.896,0.947,1.26,1.59,1.675c0.696,0.448,1.427,0.895,1.675,1.675
		c-0.681,1.446-1.768-0.076-2.847-0.082c-1.188-0.009-2.922,2.263-3.935,0.419c0.252-0.977,1.328-1.129,1.59-2.093
		c-1.182,0.201-2.212,1.197-3.601,1.508c-0.584,0.129-1.153,0.097-1.675,0.249c-1.002,0.294-1.702,1.034-2.761,1.425
		c-0.415,0.152-0.909,0.106-1.341,0.249c-1.011,0.338-2.223,0.943-3.265,1.508c-1.066,0.577-2.269,1.184-2.931,1.759
		c-0.358,0.309-1.288,1.408-1.256,1.757c0.042,0.499,0.981,0.664,1.004,1.173c-0.021,0.309-0.543,0.975-0.167,1.423
		c0.343,0.408,1.03,0.078,1.757,0.167c1.279,0.159,2.117,1.216,3.098,1.76c0.742,0.41,1.844,0.899,2.682,1.004
		c1.15,0.144,2.438-0.336,2.594,0.586c0.152,0.886-1.083,1.203-1.172,1.759c0.62,0.818-0.421,1.209-0.419,1.926
		c0.002,0.581,0.715,1.453,1.339,1.506c0.844,0.072,2.079-0.831,2.43-1.675c0.416-1.005,0.239-2.366,1.004-3.098
		c3.901,0.108,7.202-1.772,6.951-5.777c-0.025-0.395-0.249-0.905-0.167-1.341c0.122-0.647,1.235-1.19,1.087-2.009
		c1.093-0.336,1.047-2.089,2.178-2.345c0.947-0.213,2.019,0.671,3.265,0.586c0.406-0.027,0.933-0.391,1.341-0.334
		c0.818,0.114,1.311,1.123,1.926,1.591c0.543,0.416,1.117,0.283,1.256,0.837c-0.163,0.939-0.823,0.962-0.755,1.842
		c0.062,0.768,0.859,1.349,1.256,1.425c0.611,0.114,1.484-0.214,2.093-0.503c1.121-0.531,2.081-2.129,3.016-1.927
		c0.738,0.161,1.315,2.506,1.423,3.35c0.116,0.905-0.123,1.597-0.083,2.429c0.108,1.413,1.886,1.269,2.762,2.009
		c0.264,0.224,0.368,0.797,0.588,1.089c0.425,0.567,0.939,0.567,1.005,1.172c0.156,1.446-1.311,1.569-1.174,3.183
		c-0.303,0.626-1.066,0.588-1.005,1.423c0.097,1.322,1.996,0.309,2.512,1.341c0.279,0.554-0.046,0.966-0.252,1.757
		c0.649,0.774,0.645,2.009-0.501,2.011C149.914,69.201,149.722,68.453,149.017,68.28z M58.497,66.104
		c0.395-0.406-0.167-1.264-0.755-0.922C57.684,65.488,57.849,66.229,58.497,66.104z M116.947,73.723
		c-0.349-0.34-1.487-0.243-2.262-0.167c-0.548,0.055-1.199,0.172-1.256,0.586C114.299,74.541,116.674,74.829,116.947,73.723z
		 M112.591,72.3c0.658-0.518,0.366-1.575-0.334-1.759c-0.275-0.072-0.641,0.203-1.089,0.169c-0.473-0.036-0.947-0.469-1.339-0.503
		c-0.668-0.057-1.347,0.273-1.592,0.586c-0.025,0.501,0.368,0.581,0.336,1.089c-0.814,0.582-0.383,2.527,0.419,2.597
		c0.85,0.074,1.29-2.15,2.427-2.345C111.832,72.061,112.043,72.367,112.591,72.3z M111.419,75.649
		c-1.19-0.423-2.29,0.288-3.265,0.419c-0.581,0.078-1.641-0.118-1.508,0.753c0.108,0.71,1.205,0.452,1.842,0.252
		C109.812,76.654,110.647,76.294,111.419,75.649z M107.736,69.284c1.668-0.711-0.33-2.899-1.089-3.098
		c-1.358-0.355-3.288,0.996-4.857,1.424c-0.884,0.241-1.725,0.262-1.926,1.006c0.793,1.311,2.36-0.288,3.517-0.085
		c0.586,0.103,0.928,0.905,1.508,1.005C105.283,69.604,107.577,69.352,107.736,69.284z M106.562,70.625
		c-0.347-0.408-2.225,0.049-2.764,0.419c-0.37,0.256-0.622,0.88-1.004,1.341c-0.395,0.476-0.838,0.844-1.172,1.256
		c-0.302,0.372-1.998,2.818-0.671,3.098c0.567,0.118,1.732-1.057,1.842-1.508c0.378-1.536,1.07-2.631,2.26-3.35
		C105.744,71.464,106.45,71.517,106.562,70.625z M96.094,61.246c0.935-0.034,1.567-2.795,0-2.429
		C95.046,59.062,94.792,61.293,96.094,61.246z M91.573,124.051c0.042-0.125,0.123-0.212,0.167-0.336
		C91.487,122.882,90.683,124.019,91.573,124.051z M56.151,53.961c0.019-0.158-0.095-0.186-0.082-0.336
		c-0.256-0.002-0.552-0.048-0.504,0.252C55.686,54.118,56.01,54.161,56.151,53.961z M144.162,40.813
		c0.412,0.051,0.645-0.08,0.586-0.501C144.375,40.05,143.832,40.394,144.162,40.813z M134.532,32.608
		c-0.108-0.116-0.395-0.116-0.504,0c0,0.11,0,0.222,0,0.334C134.384,33.018,134.449,32.805,134.532,32.608z M102.711,39.056
		c0.279-0.18,0.706-0.423,0.501-0.838c-0.924-0.434-2.487-0.103-3.851-0.252c-0.774-1.093-2.068-1.263-2.178,0.503
		C98.742,39.734,101.102,37.88,102.711,39.056z M87.721,47.681c0.476-0.165,1.136-0.08,1.256-0.588
		c-0.391-0.313-0.793-0.736-1.256-0.753c-0.607-0.021-0.899,0.516-1.508,0.838c-0.708,0.374-1.69,0.465-1.758,1.089
		C85.752,48.521,86.919,47.956,87.721,47.681z M87.302,41.65c0.535-0.091,1.085,0.15,1.425-0.334c-0.4-1.844-2.95-0.717-4.439-0.586
		c-0.313,0.525-0.732,0.944-0.837,1.675C84.606,42.697,85.999,41.872,87.302,41.65z M112.424,127.233
		c0.662-0.108,0.469-1.628-0.334-1.258C111.483,126.256,111.798,127.333,112.424,127.233z"/>
	<path style="fill:#2D93BA;" d="M56.069,53.625c-0.013,0.15,0.101,0.178,0.082,0.336c-0.142,0.199-0.465,0.157-0.586-0.084
		C55.517,53.577,55.813,53.623,56.069,53.625z"/>
	<path style="fill:#2D93BA;" d="M53.557,58.567c-0.178,0.547-0.662,0.789-1.174,1.004c-0.161-0.121-0.3-0.26-0.419-0.419
		C52,58.358,53.132,57.772,53.557,58.567z"/>
</g>
<ellipse style="fill:#E56353;" cx="414.505" cy="67.123" rx="39.368" ry="39.311"/>
<ellipse style="fill:#FCD462;" cx="363.172" cy="67.123" rx="39.368" ry="39.311"/>
<g>
	<rect x="38.282" y="161.823" style="fill:#FFFFFF;" width="128" height="15.642"/>
	<rect x="38.282" y="264.745" style="fill:#FFFFFF;" width="65.126" height="15.642"/>
	<rect x="155.75" y="264.817" style="fill:#FFFFFF;" width="65.126" height="15.642"/>
	<rect x="267.981" y="264.919" style="fill:#FFFFFF;" width="65.126" height="15.642"/>
	<rect x="385.434" y="264.919" style="fill:#FFFFFF;" width="65.126" height="15.642"/>
	<rect x="38.282" y="217.948" style="fill:#FFFFFF;" width="192.333" height="15.642"/>
</g>
<path style="fill:#FCD462;" d="M104.426,39.602H39.67c-3.563,0-6.449,2.884-6.449,6.441v64.664c0,3.558,2.887,6.441,6.449,6.441
	h64.756c3.561,0,6.449-2.884,6.449-6.441V46.043C110.876,42.486,107.987,39.602,104.426,39.602z"/>
<path style="fill:#DC8744;" d="M110.873,64.982v-6.739H92.18V39.549h-6.738v18.694H58.654V39.549h-6.738v18.694H33.222v6.739h18.694
	v26.787H33.222v6.739h18.694v18.694h6.738V98.507h26.788v18.694h6.738V98.507h18.693v-6.739H92.18V64.982H110.873z M85.442,91.768
	H58.654V64.982h26.788V91.768z"/>
<polygon style="fill:#EBF0F3;" points="122.201,397.267 126.175,410.364 139.239,406.284 143.217,419.382 156.281,415.302 
	160.256,428.399 173.32,424.318 177.297,437.417 190.361,433.336 194.336,446.433 207.4,442.353 211.376,455.451 224.441,451.37 
	228.416,464.468 241.481,460.388 245.457,473.485 258.521,469.405 262.497,482.503 275.561,478.422 279.537,491.52 418.295,229.305 
	247.895,139.133 109.136,401.348 "/>
<g>
	
		<rect x="141.801" y="379.382" transform="matrix(0.8839 0.4677 -0.4677 0.8839 201.1255 -42.674)" style="fill:#D5D6DB;" width="89.4" height="8.632"/>
	
		<rect x="155.021" y="355.526" transform="matrix(0.8839 0.4677 -0.4677 0.8839 192.0733 -53.9255)" style="fill:#D5D6DB;" width="99.225" height="8.632"/>
	
		<rect x="170.714" y="322.111" transform="matrix(0.8839 0.4677 -0.4677 0.8839 176.4455 -57.8133)" style="fill:#D5D6DB;" width="67.871" height="8.632"/>
</g>
<g>
	
		<rect x="185.513" y="294.19" transform="matrix(0.8839 0.4677 -0.4677 0.8839 165.105 -67.9775)" style="fill:#27A2DB;" width="67.871" height="8.632"/>
	
		<rect x="302.279" y="346.496" transform="matrix(0.8839 0.4677 -0.4677 0.8839 201.0557 -108.1655)" style="fill:#27A2DB;" width="32.154" height="8.632"/>
</g>
<g>
	
		<rect x="287.489" y="374.481" transform="matrix(0.8839 0.4677 -0.4677 0.8839 212.4275 -97.9976)" style="fill:#D5D6DB;" width="32.154" height="8.632"/>
	
		<rect x="273.659" y="400.619" transform="matrix(0.8839 0.4677 -0.4677 0.8839 223.0472 -88.4936)" style="fill:#D5D6DB;" width="32.154" height="8.632"/>
	
		<rect x="259.856" y="426.701" transform="matrix(0.8839 0.4677 -0.4677 0.8839 233.6437 -79.0086)" style="fill:#D5D6DB;" width="32.154" height="8.632"/>
	
		<rect x="201.267" y="265.919" transform="matrix(0.8839 0.4677 -0.4677 0.8839 154.473 -81.6971)" style="fill:#D5D6DB;" width="80.988" height="8.632"/>
</g>
<rect x="209.832" y="259.808" transform="matrix(0.8839 0.4677 -0.4677 0.8839 157.3115 -105.3519)" style="fill:#44C4A1;" width="161.971" height="8.632"/>
<ellipse style="fill:#E56353;" cx="310.299" cy="227.271" rx="22.687" ry="22.687"/>
<g>
</g>
<g>
</g>
<g>
</g>
<g>
</g>
<g>
</g>
<g>
</g>
<g>
</g>
<g>
</g>
<g>
</g>
<g>
</g>
<g>
</g>
<g>
</g>
<g>
</g>
<g>
</g>
<g>
</g>
</svg>
