<?xml version="1.0" encoding="iso-8859-1"?>
<!-- Generator: Adobe Illustrator 19.0.0, SVG Export Plug-In . SVG Version: 6.00 Build 0)  -->
<svg version="1.1" id="Layer_1" xmlns="http://www.w3.org/2000/svg" xmlns:xlink="http://www.w3.org/1999/xlink" x="0px" y="0px"
	 viewBox="0 0 491.52 491.52" style="enable-background:new 0 0 491.52 491.52;" xml:space="preserve">
<rect style="fill:#EBF0F3;" width="368.845" height="491.52"/>
<g>
	<path style="fill:#64798A;" d="M334.522,377.951H32.96V159.014h301.562V377.951z M41.897,369.014h283.689V167.951H41.897V369.014z"
		/>
	<rect x="256.358" y="163.482" style="fill:#64798A;" width="8.934" height="210.022"/>
	<rect x="37.427" y="334.131" style="fill:#64798A;" width="292.608" height="8.934"/>
	<rect x="37.427" y="191.283" style="fill:#64798A;" width="292.608" height="8.934"/>
</g>
<g>
	<rect x="60.662" y="220.928" style="fill:#27A2DB;" width="88.806" height="8.934"/>
	<rect x="60.662" y="249.334" style="fill:#27A2DB;" width="65.551" height="8.934"/>
	<rect x="272.845" y="249.334" style="fill:#27A2DB;" width="45.112" height="8.934"/>
</g>
<rect x="255.918" y="404.413" style="fill:#E56353;" width="78.945" height="8.934"/>
<g>
	<rect x="272.845" y="350.822" style="fill:#27A2DB;" width="45.112" height="8.934"/>
	<rect x="272.845" y="220.928" style="fill:#27A2DB;" width="45.112" height="8.934"/>
</g>
<rect x="37.427" y="26.931" style="fill:#44C4A1;" width="84.69" height="8.934"/>
<g>
	<rect x="37.427" y="55.997" style="fill:#D5D6DB;" width="109.292" height="8.934"/>
	<rect x="37.427" y="85.514" style="fill:#D5D6DB;" width="109.292" height="8.934"/>
	<rect x="37.427" y="465.306" style="fill:#D5D6DB;" width="297.421" height="8.934"/>
</g>
<rect x="103.475" y="126.653" style="fill:#DC8744;" width="160.558" height="8.934"/>
<polygon style="fill:#31978C;" points="443.705,406.234 390.964,388.063 288.462,424.154 195.532,434.88 195.532,456.874 
	296.086,491.52 491.52,422.709 491.52,400.715 "/>
<polygon style="fill:#3EA69B;" points="390.964,366.069 195.532,434.88 296.086,469.526 491.52,400.715 "/>
<path style="fill:#44C4A1;" d="M282.815,460.003l-59.799-20.604c7.208-2.538,7.144-6.63-0.142-9.141l155.118-54.616
	c7.286,2.511,19.037,2.488,26.245-0.05l59.799,20.604c-7.208,2.538-7.144,6.63,0.142,9.141L309.06,459.953
	C301.773,457.443,290.023,457.465,282.815,460.003z"/>
<g>
	<path style="fill:#3EA69B;" d="M370.331,408.36c18.943,6.527,22.299,16.044,7.495,21.256s-42.162,4.147-61.105-2.38
		c-18.944-6.527-22.299-16.044-7.495-21.256S351.387,401.833,370.331,408.36z"/>
	<path style="fill:#3EA69B;" d="M425.51,388.931c3.386,1.167,3.416,3.069,0.066,4.248c-3.35,1.179-8.81,1.19-12.196,0.023
		c-3.386-1.167-3.416-3.069-0.066-4.248C416.664,387.775,422.124,387.764,425.51,388.931z"/>
	<path style="fill:#3EA69B;" d="M273.671,442.393c3.386,1.167,3.416,3.069,0.066,4.248c-3.35,1.179-8.81,1.19-12.196,0.023
		c-3.386-1.167-3.416-3.069-0.066-4.248C264.824,441.237,270.285,441.226,273.671,442.393z"/>
</g>
<path style="fill:#44C4A1;" d="M369.701,427.825l-4.865-1.676c-6.646,1.907-14.476,2.977-23.481,3.208l-0.985-3.692
	c6.935-0.182,12.664-0.854,17.204-2.019l-12.93-4.455c-6.167,1.336-11.383,2.073-15.645,2.212s-8.315-0.454-12.157-1.778
	c-3.843-1.324-5.66-2.873-5.445-4.653c0.218-1.779,2.347-3.456,6.39-5.034l-3.333-1.148l4.217-1.485l3.398,1.171
	c5.192-1.579,11.428-2.614,18.714-3.105l1.845,3.622c-4.991,0.303-9.417,0.964-13.294,1.987l12.528,4.317l0.199-0.07
	c6.255-1.366,11.59-2.114,16.003-2.245c4.421-0.132,8.574,0.472,12.46,1.811c3.889,1.34,5.693,2.911,5.408,4.712
	c-0.279,1.802-2.548,3.529-6.811,5.185l4.797,1.653L369.701,427.825z M322.032,414.642c-0.123,0.739,0.563,1.364,2.052,1.877
	c1.489,0.513,3.106,0.764,4.851,0.752c1.742-0.009,4.249-0.311,7.511-0.903l-11.531-3.973
	C323.115,413.153,322.153,413.902,322.032,414.642z M365.134,419.823c0.209-0.784-0.462-1.445-2.019-1.981
	c-1.554-0.535-3.271-0.79-5.147-0.764c-1.882,0.028-4.539,0.368-7.973,1.02l11.994,4.133
	C363.877,421.412,364.922,420.61,365.134,419.823z"/>
<polygon style="fill:#31978C;" points="443.705,380.401 390.964,362.229 288.462,398.32 195.532,409.047 195.532,431.041 
	296.086,465.686 491.52,396.875 491.52,374.881 "/>
<polygon style="fill:#3EA69B;" points="390.964,340.235 195.532,409.047 296.086,443.693 491.52,374.881 "/>
<path style="fill:#44C4A1;" d="M282.815,434.169l-59.799-20.604c7.208-2.538,7.144-6.63-0.142-9.141l155.118-54.616
	c7.286,2.511,19.037,2.488,26.245-0.05l59.799,20.604c-7.208,2.538-7.144,6.63,0.142,9.141L309.06,434.12
	C301.773,431.609,290.023,431.632,282.815,434.169z"/>
<g>
	<path style="fill:#3EA69B;" d="M370.331,382.526c18.943,6.527,22.299,16.044,7.495,21.256c-14.804,5.212-42.162,4.147-61.105-2.38
		c-18.944-6.527-22.299-16.044-7.495-21.256S351.387,375.999,370.331,382.526z"/>
	<path style="fill:#3EA69B;" d="M425.51,363.098c3.386,1.167,3.416,3.069,0.066,4.248c-3.35,1.179-8.81,1.19-12.196,0.023
		c-3.386-1.167-3.416-3.069-0.066-4.248C416.664,361.941,422.124,361.931,425.51,363.098z"/>
	<path style="fill:#3EA69B;" d="M273.671,416.56c3.386,1.167,3.416,3.069,0.066,4.248c-3.35,1.179-8.81,1.19-12.196,0.023
		c-3.386-1.167-3.416-3.069-0.066-4.248C264.824,415.403,270.285,415.393,273.671,416.56z"/>
</g>
<path style="fill:#44C4A1;" d="M369.701,401.992l-4.865-1.676c-6.646,1.907-14.476,2.977-23.481,3.208l-0.985-3.692
	c6.935-0.182,12.664-0.854,17.204-2.018l-12.93-4.455c-6.167,1.336-11.383,2.073-15.645,2.212
	c-4.262,0.139-8.315-0.454-12.157-1.778c-3.843-1.324-5.66-2.874-5.445-4.653c0.218-1.779,2.347-3.456,6.39-5.034l-3.333-1.148
	l4.217-1.485l3.398,1.171c5.192-1.579,11.428-2.614,18.714-3.105l1.845,3.622c-4.991,0.303-9.417,0.964-13.294,1.987l12.528,4.317
	l0.199-0.07c6.255-1.366,11.59-2.114,16.003-2.245c4.421-0.132,8.574,0.472,12.46,1.811c3.889,1.34,5.693,2.911,5.408,4.712
	c-0.279,1.802-2.548,3.529-6.811,5.185l4.797,1.653L369.701,401.992z M322.032,388.808c-0.123,0.739,0.563,1.364,2.052,1.877
	c1.489,0.513,3.106,0.764,4.851,0.752c1.742-0.009,4.249-0.311,7.511-0.903l-11.531-3.973
	C323.115,387.32,322.153,388.069,322.032,388.808z M365.134,393.99c0.209-0.784-0.462-1.445-2.019-1.981
	c-1.554-0.535-3.271-0.79-5.147-0.764c-1.882,0.028-4.539,0.368-7.973,1.02l11.994,4.133
	C363.877,395.579,364.922,394.776,365.134,393.99z"/>
<polygon style="fill:#31978C;" points="443.705,354.567 390.964,336.395 288.462,372.487 195.532,383.213 195.532,405.207 
	296.086,439.853 491.52,371.042 491.52,349.048 "/>
<polygon style="fill:#3EA69B;" points="390.964,314.402 195.532,383.213 296.086,417.859 491.52,349.048 "/>
<path style="fill:#44C4A1;" d="M282.815,408.336l-59.799-20.604c7.208-2.538,7.144-6.63-0.142-9.141l155.118-54.616
	c7.286,2.511,19.037,2.488,26.245-0.05l59.799,20.604c-7.208,2.538-7.144,6.63,0.142,9.141L309.06,408.286
	C301.773,405.776,290.023,405.798,282.815,408.336z"/>
<g>
	<path style="fill:#3EA69B;" d="M370.331,356.693c18.943,6.527,22.299,16.044,7.495,21.256s-42.162,4.147-61.105-2.38
		c-18.944-6.527-22.299-16.044-7.495-21.256C324.029,349.1,351.387,350.166,370.331,356.693z"/>
	<path style="fill:#3EA69B;" d="M425.51,337.264c3.386,1.167,3.416,3.069,0.066,4.248c-3.35,1.179-8.81,1.19-12.196,0.023
		c-3.386-1.167-3.416-3.069-0.066-4.248C416.664,336.108,422.124,336.097,425.51,337.264z"/>
	<path style="fill:#3EA69B;" d="M273.671,390.726c3.386,1.167,3.416,3.069,0.066,4.248c-3.35,1.179-8.81,1.19-12.196,0.023
		c-3.386-1.167-3.416-3.069-0.066-4.248C264.824,389.57,270.285,389.559,273.671,390.726z"/>
</g>
<path style="fill:#44C4A1;" d="M369.701,376.158l-4.865-1.676c-6.646,1.907-14.476,2.977-23.481,3.208l-0.985-3.692
	c6.935-0.182,12.664-0.854,17.204-2.018l-12.93-4.455c-6.167,1.336-11.383,2.073-15.645,2.212
	c-4.262,0.139-8.315-0.454-12.157-1.778c-3.843-1.324-5.66-2.873-5.445-4.653c0.218-1.779,2.347-3.456,6.39-5.034l-3.333-1.148
	l4.217-1.485l3.398,1.171c5.192-1.579,11.428-2.614,18.714-3.105l1.845,3.622c-4.991,0.303-9.417,0.964-13.294,1.987l12.528,4.317
	l0.199-0.07c6.255-1.366,11.59-2.114,16.003-2.245c4.421-0.132,8.574,0.472,12.46,1.811c3.889,1.34,5.693,2.911,5.408,4.712
	c-0.279,1.802-2.548,3.529-6.811,5.185l4.797,1.653L369.701,376.158z M322.032,362.975c-0.123,0.739,0.563,1.364,2.052,1.877
	s3.106,0.764,4.851,0.752c1.742-0.009,4.249-0.311,7.511-0.903l-11.531-3.973C323.115,361.486,322.153,362.235,322.032,362.975z
	 M365.134,368.156c0.209-0.784-0.462-1.445-2.019-1.981c-1.554-0.535-3.271-0.79-5.147-0.764c-1.882,0.028-4.539,0.368-7.973,1.02
	l11.994,4.133C363.877,369.745,364.922,368.943,365.134,368.156z"/>
<polygon style="fill:#31978C;" points="443.705,328.734 390.964,310.562 288.462,346.653 195.532,357.38 195.532,379.373 
	296.086,414.019 491.52,345.208 491.52,323.214 "/>
<polygon style="fill:#3EA69B;" points="390.964,288.568 195.532,357.38 296.086,392.026 491.52,323.214 "/>
<path style="fill:#44C4A1;" d="M282.815,382.502l-59.799-20.604c7.208-2.538,7.144-6.63-0.142-9.141l155.118-54.616
	c7.286,2.511,19.037,2.488,26.245-0.049l59.799,20.604c-7.208,2.538-7.144,6.63,0.142,9.141L309.06,382.453
	C301.773,379.942,290.023,379.964,282.815,382.502z"/>
<g>
	<path style="fill:#3EA69B;" d="M370.331,330.859c18.943,6.527,22.299,16.044,7.495,21.256s-42.162,4.147-61.105-2.38
		c-18.944-6.527-22.299-16.044-7.495-21.256C324.029,323.266,351.387,324.332,370.331,330.859z"/>
	<path style="fill:#3EA69B;" d="M425.51,311.43c3.386,1.167,3.416,3.069,0.066,4.248c-3.35,1.179-8.81,1.19-12.196,0.023
		c-3.386-1.167-3.416-3.069-0.066-4.248C416.664,310.274,422.124,310.264,425.51,311.43z"/>
	<path style="fill:#3EA69B;" d="M273.671,364.893c3.386,1.167,3.416,3.069,0.066,4.248c-3.35,1.179-8.81,1.19-12.196,0.023
		c-3.386-1.167-3.416-3.069-0.066-4.248C264.824,363.736,270.285,363.726,273.671,364.893z"/>
</g>
<path style="fill:#44C4A1;" d="M369.701,350.325l-4.865-1.676c-6.646,1.907-14.476,2.977-23.481,3.208l-0.985-3.692
	c6.935-0.182,12.664-0.854,17.204-2.018l-12.93-4.455c-6.167,1.336-11.383,2.073-15.645,2.212
	c-4.262,0.139-8.315-0.454-12.157-1.778c-3.843-1.324-5.66-2.873-5.445-4.653c0.218-1.779,2.347-3.456,6.39-5.034l-3.333-1.148
	l4.217-1.485l3.398,1.171c5.192-1.579,11.428-2.614,18.714-3.105l1.845,3.622c-4.991,0.303-9.417,0.964-13.294,1.987l12.528,4.317
	l0.199-0.07c6.255-1.366,11.59-2.114,16.003-2.245c4.421-0.132,8.574,0.472,12.46,1.811c3.889,1.34,5.693,2.911,5.408,4.712
	c-0.279,1.802-2.548,3.529-6.811,5.185l4.797,1.653L369.701,350.325z M322.032,337.141c-0.123,0.739,0.563,1.364,2.052,1.877
	s3.106,0.764,4.851,0.752c1.742-0.009,4.249-0.311,7.511-0.903l-11.531-3.973C323.115,335.653,322.153,336.401,322.032,337.141z
	 M365.134,342.323c0.209-0.784-0.462-1.445-2.019-1.981c-1.554-0.535-3.271-0.79-5.147-0.764c-1.882,0.028-4.539,0.368-7.973,1.02
	l11.994,4.133C363.877,343.912,364.922,343.109,365.134,342.323z"/>
<polygon style="fill:#31978C;" points="443.705,302.9 390.964,284.728 288.462,320.82 195.532,331.546 195.532,353.54 
	296.086,388.186 491.52,319.375 491.52,297.381 "/>
<polygon style="fill:#3EA69B;" points="390.964,262.735 195.532,331.546 296.086,366.192 491.52,297.381 "/>
<path style="fill:#44C4A1;" d="M282.815,356.669l-59.799-20.604c7.208-2.538,7.144-6.63-0.142-9.141l155.118-54.616
	c7.286,2.511,19.037,2.488,26.245-0.05l59.799,20.604c-7.208,2.538-7.144,6.63,0.142,9.141L309.06,356.619
	C301.773,354.109,290.023,354.131,282.815,356.669z"/>
<g>
	<path style="fill:#3EA69B;" d="M370.331,305.025c18.943,6.527,22.299,16.044,7.495,21.256s-42.162,4.147-61.105-2.38
		c-18.944-6.527-22.299-16.044-7.495-21.256S351.387,298.499,370.331,305.025z"/>
	<path style="fill:#3EA69B;" d="M425.51,285.597c3.386,1.167,3.416,3.069,0.066,4.248c-3.35,1.179-8.81,1.19-12.196,0.023
		c-3.386-1.167-3.416-3.069-0.066-4.248C416.664,284.441,422.124,284.43,425.51,285.597z"/>
	<path style="fill:#3EA69B;" d="M273.671,339.059c3.386,1.167,3.416,3.069,0.066,4.248c-3.35,1.179-8.81,1.19-12.196,0.023
		c-3.386-1.167-3.416-3.069-0.066-4.248C264.824,337.903,270.285,337.892,273.671,339.059z"/>
</g>
<path style="fill:#44C4A1;" d="M369.701,324.491l-4.865-1.676c-6.646,1.907-14.476,2.977-23.481,3.208l-0.985-3.692
	c6.935-0.182,12.664-0.854,17.204-2.018l-12.93-4.455c-6.167,1.336-11.383,2.073-15.645,2.212
	c-4.262,0.139-8.315-0.454-12.157-1.778s-5.66-2.873-5.445-4.653c0.218-1.779,2.347-3.456,6.39-5.034l-3.333-1.148l4.217-1.485
	l3.398,1.171c5.192-1.579,11.428-2.614,18.714-3.105l1.845,3.622c-4.991,0.303-9.417,0.964-13.294,1.987l12.528,4.317l0.199-0.07
	c6.255-1.366,11.59-2.114,16.003-2.245c4.421-0.132,8.574,0.472,12.46,1.811c3.889,1.34,5.693,2.911,5.408,4.712
	c-0.279,1.802-2.548,3.529-6.811,5.185l4.797,1.653L369.701,324.491z M322.032,311.307c-0.123,0.739,0.563,1.364,2.052,1.877
	c1.489,0.513,3.106,0.764,4.851,0.752c1.742-0.009,4.249-0.311,7.511-0.903l-11.531-3.973
	C323.115,309.819,322.153,310.568,322.032,311.307z M365.134,316.489c0.209-0.784-0.462-1.445-2.019-1.981
	c-1.554-0.535-3.271-0.79-5.147-0.764c-1.882,0.028-4.539,0.368-7.973,1.02l11.994,4.133
	C363.877,318.078,364.922,317.276,365.134,316.489z"/>
<polygon style="fill:#FFFFFF;" points="370.863,339.863 370.863,465.225 415.823,449.395 415.823,324.033 "/>
<g>
	<polygon style="fill:#FCD462;" points="376.229,337.974 376.229,463.336 380.868,461.702 380.868,336.341 	"/>
	<polygon style="fill:#FCD462;" points="405.818,327.556 405.818,452.917 410.457,451.284 410.457,325.923 	"/>
</g>
<g>
</g>
<g>
</g>
<g>
</g>
<g>
</g>
<g>
</g>
<g>
</g>
<g>
</g>
<g>
</g>
<g>
</g>
<g>
</g>
<g>
</g>
<g>
</g>
<g>
</g>
<g>
</g>
<g>
</g>
</svg>
