<?xml version="1.0" encoding="iso-8859-1"?>
<!-- Generator: Adobe Illustrator 19.0.0, SVG Export Plug-In . SVG Version: 6.00 Build 0)  -->
<svg version="1.1" id="Capa_1" xmlns="http://www.w3.org/2000/svg" xmlns:xlink="http://www.w3.org/1999/xlink" x="0px" y="0px"
	 viewBox="0 0 512 512" style="enable-background:new 0 0 512 512;" xml:space="preserve">
<path style="fill:#B8BFCC;" d="M129.141,103.1L75,136c-0.674,0-1.333-0.015-2.007-0.029l83.73,70.298l51.65-36.24L129.141,103.1z"/>
<path style="fill:#4596E6;" d="M75,0C33.578,0,0,34.578,0,76c0,41.42,33.578,75,75,75s75-33.58,75-75C150,34.578,116.422,0,75,0z
	 M75,121c-24.853,0-45-20.147-45-45s20.147-46,45-46s45,21.147,45,46S99.853,121,75,121z"/>
<path style="fill:#E55639;" d="M210,91l-30,30v346c0,24.814,21.186,45,46,45h240c24.814,0,46-20.186,46-45V121l-30-30H210z"/>
<path style="fill:#CF4529;" d="M346,91v421h120c24.814,0,46-20.186,46-45V121l-30-30H346z"/>
<path style="fill:#FFDE33;" d="M466,0H226c-24.814,0-46,20.186-46,45v76h332V45C512,20.186,490.814,0,466,0z"/>
<path style="fill:#FFBC33;" d="M466,0H346v121h166V45C512,20.186,490.814,0,466,0z"/>
<g>
	<path style="fill:#A63A3A;" d="M316,211h-30c-8.291,0-15-6.709-15-15s6.709-15,15-15h30c8.291,0,15,6.709,15,15
		S324.291,211,316,211z"/>
	<path style="fill:#A63A3A;" d="M226,181h-46v30h46c8.291,0,15-6.709,15-15S234.291,181,226,181z"/>
</g>
<path style="fill:#992E2E;" d="M406,211h-30c-8.291,0-15-6.709-15-15s6.709-15,15-15h30c8.291,0,15,6.709,15,15S414.291,211,406,211
	z"/>
<path style="fill:#FFDE33;" d="M286,331c-24.814,0-45-20.186-45-45s20.186-45,45-45s45,20.186,45,45S310.814,331,286,331z"/>
<path style="fill:#FFBC33;" d="M406,451c-24.814,0-45-20.186-45-45s20.186-45,45-45s45,20.186,45,45S430.814,451,406,451z"/>
<path style="fill:#FFDE33;" d="M418.599,264.399L346,373.299l-47.401,71.1c-4.447,6.229-12.577,8.878-21,4.2
	c-6.899-4.799-8.699-14.099-4.199-21l72.6-108.9l47.401-71.1c4.799-6.899,14.099-8.699,21-4.2
	C421.3,248.2,423.1,257.5,418.599,264.399z"/>
<path style="fill:#FFBC33;" d="M418.599,264.399L346,373.299v-54.6l47.401-71.1c4.799-6.899,14.099-8.699,21-4.2
	C421.3,248.2,423.1,257.5,418.599,264.399z"/>
<path style="fill:#D5DCEC;" d="M320.089,86.585c-20.848-14.396-49.199-14.227-70.08,1.412L83.765,211.886l54.476,34.175
	l181.613-135.456C327.788,104.654,328.248,92.221,320.089,86.585z"/>
<path style="fill:#992E2E;" d="M512,181h-46c-8.291,0-15,6.709-15,15s6.709,15,15,15h46V181z"/>
<path style="fill:#4DA6FF;" d="M75,211c-41.422,0-75,33.578-75,75c0,41.42,33.578,75,75,75s75-33.58,75-75
	C150,244.578,116.422,211,75,211z M75,331c-24.853,0-45-20.147-45-45s20.147-45,45-45s45,20.147,45,45S99.853,331,75,331z"/>
<g>
</g>
<g>
</g>
<g>
</g>
<g>
</g>
<g>
</g>
<g>
</g>
<g>
</g>
<g>
</g>
<g>
</g>
<g>
</g>
<g>
</g>
<g>
</g>
<g>
</g>
<g>
</g>
<g>
</g>
</svg>
