<?xml version="1.0" encoding="iso-8859-1"?>
<!-- Generator: Adobe Illustrator 19.0.0, SVG Export Plug-In . SVG Version: 6.00 Build 0)  -->
<svg version="1.1" id="Capa_1" xmlns="http://www.w3.org/2000/svg" xmlns:xlink="http://www.w3.org/1999/xlink" x="0px" y="0px"
	 viewBox="0 0 512.007 512.007" style="enable-background:new 0 0 512.007 512.007;" xml:space="preserve">
<circle style="fill:#F7DC4D;" cx="256.003" cy="256.003" r="256.003"/>
<path style="fill:#D4B331;" d="M511.67,242.906l-91.028-91.028l0,0H255.999H91.358v208.245l151.547,151.548
	c4.337,0.219,8.703,0.33,13.094,0.33c141.385,0,255.999-114.615,256-256C512,251.608,511.889,247.243,511.67,242.906z"/>
<rect x="91.361" y="151.875" style="fill:#38979E;" width="329.284" height="208.247"/>
<rect x="256.003" y="151.875" style="fill:#308187;" width="164.642" height="208.247"/>
<circle style="fill:#ECF4F6;" cx="342.859" cy="196.949" r="26.727"/>
<circle style="fill:#B5DFEC;" cx="374.309" cy="196.949" r="26.727"/>
<rect x="130.964" y="284.022" style="fill:#ECF4F6;" width="216.618" height="35.58"/>
<g>
	<rect x="256.003" y="284.022" style="fill:#B5DFEC;" width="91.578" height="35.58"/>
	<rect x="130.964" y="238.475" style="fill:#B5DFEC;" width="77.392" height="16.868"/>
	<rect x="130.964" y="206.374" style="fill:#B5DFEC;" width="77.392" height="16.868"/>
</g>
<g>
</g>
<g>
</g>
<g>
</g>
<g>
</g>
<g>
</g>
<g>
</g>
<g>
</g>
<g>
</g>
<g>
</g>
<g>
</g>
<g>
</g>
<g>
</g>
<g>
</g>
<g>
</g>
<g>
</g>
</svg>
