<?xml version="1.0" encoding="iso-8859-1"?>
<!-- Generator: Adobe Illustrator 19.0.0, SVG Export Plug-In . SVG Version: 6.00 Build 0)  -->
<svg version="1.1" id="Capa_1" xmlns="http://www.w3.org/2000/svg" xmlns:xlink="http://www.w3.org/1999/xlink" x="0px" y="0px"
	 viewBox="0 0 512 512" style="enable-background:new 0 0 512 512;" xml:space="preserve">
<circle style="fill:#E25F3F;" cx="256" cy="256" r="256"/>
<path style="fill:#A2482A;" d="M394.237,136.747l-0.005,0.005c-6.694-6.794-15.998-11.01-26.289-11.01
	c-20.384,0-36.908,16.524-36.908,36.907c0,10.808,4.648,20.531,12.052,27.281l52.579,52.579c-0.383,0-5.526,0-14.15,0
	l-35.857-35.857c-9.176-9.176-21.854-14.853-35.858-14.853c-28.006,0-50.71,22.703-50.71,50.71c-2.722,0-150.551,0-153.184,0l0,0
	c0,5.186,0,135.919,0,141.132l127.343,127.341C240.748,511.642,248.332,512,256,512c141.385,0,256-114.615,256-256
	c0-0.505-0.016-1.006-0.019-1.51L394.237,136.747z"/>
<rect x="105.909" y="242.508" style="fill:#ECF4F6;" width="289.754" height="141.136"/>
<rect x="249.981" y="242.508" style="fill:#B5DFEC;" width="145.693" height="141.136"/>
<path style="fill:#38979E;" d="M105.909,242.509c0,5.468,0,136.554,0,141.132l0,0h289.757l0,0c0-4.573,0-135.685,0-141.132
	C392.713,242.509,108.206,242.509,105.909,242.509z M375.432,339.941c-10.332,4.792-18.674,13.134-23.466,23.466H149.61
	c-4.792-10.331-13.134-18.674-23.466-23.466V286.21c10.332-4.792,18.674-13.134,23.466-23.466h202.357
	c4.792,10.332,13.134,18.674,23.466,23.466V339.941z"/>
<path style="fill:#30767A;" d="M249.979,242.509v20.235h101.988c4.792,10.332,13.134,18.674,23.466,23.466v53.731
	c-10.332,4.792-18.674,13.134-23.466,23.466H249.979v20.235h145.688V242.509H249.979z"/>
<circle style="fill:#38979E;" cx="250.791" cy="313.071" r="38.445"/>
<path style="fill:#30767A;" d="M250.788,274.63c-0.272,0-0.54,0.015-0.81,0.021v76.85c0.27,0.006,0.538,0.021,0.81,0.021
	c21.233,0,38.445-17.212,38.445-38.445C289.234,291.842,272.021,274.63,250.788,274.63z"/>
<circle style="fill:#F7DC4D;" cx="309.8" cy="242.508" r="50.706"/>
<circle style="fill:#F6CE23;" cx="309.8" cy="242.508" r="38.09"/>
<path style="fill:#FFB33B;" d="M309.803,191.799v101.418c28.006,0,50.71-22.703,50.71-50.71S337.809,191.799,309.803,191.799z"/>
<path style="fill:#DF871E;" d="M347.893,242.509c0-21.036-17.053-38.09-38.09-38.09v76.179
	C330.839,280.599,347.893,263.546,347.893,242.509z"/>
<path style="fill:#FDF7D0;" d="M322.135,231.165c-0.891-1.038-5.923-3.9-10.825-4.408v11.215l1.621,0.388
	c8.412,2.268,14.78,4.765,14.78,13.612c0,9.111-6.751,13.24-15.817,13.612v7.13h-3.889v-7.196c-6.281-0.45-12.164-2.67-16.659-5.834
	l3.954-7.714c1.956,1.961,7.977,4.921,13.288,5.509v-11.149c-8.301-1.836-15.363-4.863-15.363-13.094
	c0-8.565,6.202-13.609,14.779-14.325v-6.612h3.889v6.547c5.323,0.404,10.164,2.273,14.196,5.056L322.135,231.165z M302.43,231.813
	c0,2.838,1.797,4.109,6.158,5.38v-10.501C304.482,226.952,302.43,228.659,302.43,231.813z M318.181,252.881
	c0-2.719-1.984-4.139-6.871-5.704v10.437C315.89,257.483,318.181,255.906,318.181,252.881z"/>
<path style="fill:#F9ED9D;" d="M312.931,238.361l-1.621-0.388v-11.215c4.871,0.504,9.925,3.36,10.825,4.408l3.955-7.26
	c-4.063-2.805-8.907-4.654-14.196-5.056v-6.547h-2.038v60.414h2.038v-7.13c9.129-0.376,15.817-4.55,15.817-13.613
	C327.71,243.135,321.356,240.632,312.931,238.361z M311.31,257.613v-10.437c4.958,1.587,6.871,3.024,6.871,5.704
	C318.181,255.906,315.89,257.483,311.31,257.613z"/>
<circle style="fill:#F7DC4D;" cx="367.948" cy="162.644" r="36.907"/>
<circle style="fill:#F6CE23;" cx="367.948" cy="162.644" r="27.725"/>
<path style="fill:#FFB33B;" d="M367.944,125.74v73.816c20.384,0,36.908-16.524,36.908-36.907S388.327,125.74,367.944,125.74z"/>
<path style="fill:#DF871E;" d="M395.667,162.648c0-15.311-12.412-27.723-27.723-27.723v55.446
	C383.255,190.371,395.667,177.96,395.667,162.648z"/>
<path style="fill:#FDF7D0;" d="M376.92,154.392c-0.789-0.919-4.635-2.872-7.879-3.208v8.162c6.74,1.617,11.936,3.478,11.936,10.191
	c0,6.655-4.888,9.635-11.512,9.908v5.189h-2.831v-5.237c-4.571-0.327-8.853-1.943-12.125-4.246l2.878-5.614
	c1.374,1.377,5.747,3.575,9.672,4.01v-8.115c-6.925-1.532-11.181-3.866-11.181-9.53c0-6.168,4.431-9.898,10.757-10.427v-4.813h2.831
	v4.765c3.874,0.295,7.398,1.655,10.332,3.68L376.92,154.392z M362.577,154.864c0,2.066,1.308,2.991,4.481,3.916v-7.643
	C364.071,151.326,362.577,152.568,362.577,154.864z M374.042,170.197c0-1.979-1.444-3.013-5.001-4.151v7.596
	C372.374,173.547,374.042,172.399,374.042,170.197z"/>
<path style="fill:#F9ED9D;" d="M369.041,159.346v-8.162c3.234,0.335,7.097,2.297,7.879,3.208l2.878-5.284
	c-2.957-2.042-6.482-3.387-10.332-3.68v-4.765h-1.483v43.971h1.483v-5.189c6.628-0.273,11.512-3.25,11.512-9.908
	C380.977,162.801,375.742,160.954,369.041,159.346z M369.041,173.641v-7.596c3.609,1.155,5.001,2.201,5.001,4.151
	C374.042,172.399,372.374,173.547,369.041,173.641z"/>
<g>
</g>
<g>
</g>
<g>
</g>
<g>
</g>
<g>
</g>
<g>
</g>
<g>
</g>
<g>
</g>
<g>
</g>
<g>
</g>
<g>
</g>
<g>
</g>
<g>
</g>
<g>
</g>
<g>
</g>
</svg>
