<?xml version="1.0" encoding="iso-8859-1"?>
<!-- Generator: Adobe Illustrator 19.0.0, SVG Export Plug-In . SVG Version: 6.00 Build 0)  -->
<svg version="1.1" id="Layer_1" xmlns="http://www.w3.org/2000/svg" xmlns:xlink="http://www.w3.org/1999/xlink" x="0px" y="0px"
	 viewBox="0 0 507.888 507.888" style="enable-background:new 0 0 507.888 507.888;" xml:space="preserve">
<path style="fill:#84DBFF;" d="M497.675,230.594L497.675,230.594c-10.6-9.8-13.3-25.4-6.7-38.1l0,0c8.6-16.5,1.2-36.8-16-44
	c-13.2-5.5-21.1-19.2-19.3-33.4v-0.1c2.4-18.4-11.5-35-30-35.8l0,0c-14.3-0.6-26.4-10.8-29.6-24.8l0,0c-4-18.2-22.7-29-40.5-23.4
	h-0.1c-13.7,4.3-28.5-1.1-36.2-13.2l0,0c-10-15.7-31.3-19.4-46-8.1l0,0c-11.4,8.7-27.2,8.7-38.6,0l0,0c-14.7-11.3-36-7.6-46,8.1l0,0
	c-7.7,12.1-22.6,17.5-36.2,13.2l0,0c-17.7-5.6-36.4,5.3-40.5,23.4l0,0c-3.1,14-15.2,24.2-29.6,24.8l0,0c-18.6,0.8-32.4,17.4-30,35.8
	v0.1c1.8,14.2-6.1,27.9-19.3,33.4l0,0c-17.2,7.1-24.6,27.5-16,44l0,0c6.6,12.7,3.9,28.3-6.7,38l-0.1,0.1
	c-13.7,12.6-13.7,34.2,0,46.7l0.1,0.1c10.5,9.7,13.3,25.3,6.7,38l0,0c-8.6,16.5-1.2,36.8,16,44c13.2,5.5,21.1,19.2,19.3,33.4v0.1
	c-2.4,18.4,11.5,35,30,35.8l0,0c14.3,0.6,26.4,10.8,29.6,24.8l0,0c4,18.2,22.7,29,40.5,23.4h0.1c13.7-4.3,28.5,1.1,36.2,13.2l0,0
	c10,15.7,31.3,19.4,46,8.1l0,0c11.4-8.7,27.2-8.7,38.6,0l0,0c14.7,11.3,36,7.6,46-8.1l0,0c7.7-12.1,22.6-17.5,36.2-13.2l0,0
	c17.7,5.6,36.4-5.3,40.5-23.4l0,0c3.1-14,15.2-24.2,29.6-24.8l0,0c18.6-0.8,32.4-17.4,30-35.8v-0.1c-1.8-14.2,6.1-27.9,19.3-33.4
	l0,0c17.2-7.1,24.6-27.5,16-44l0,0c-6.6-12.7-3.9-28.3,6.7-38l0.1-0.1C511.275,264.794,511.275,243.194,497.675,230.594z"/>
<ellipse style="fill:#F2F2F2;" cx="253.875" cy="253.994" rx="181.6" ry="181.8"/>
<path style="fill:#40596B;" d="M149.475,204.394c0-16.8,3.7-29.2,11-37.3c7.4-8.1,17.4-12.1,30-12.1c13,0,23.2,4,30.6,12.1
	c7.4,8,11,20.5,11,37.4c0,16.8-3.7,29.2-11,37.3c-7.4,8.1-17.3,12.1-29.9,12.1c-13,0-23.2-4-30.6-12.1
	C153.175,233.794,149.475,221.294,149.475,204.394z M177.475,204.194c0,12.2,1.4,20.4,4.2,24.5c2.1,3.1,5.1,4.6,8.8,4.6
	c3.8,0,6.8-1.5,8.9-4.6c2.7-4.2,4.1-12.3,4.1-24.5s-1.4-20.3-4.1-24.4c-2.1-3.2-5.1-4.7-8.9-4.7c-3.7,0-6.7,1.5-8.8,4.6
	C178.875,183.794,177.475,191.994,177.475,204.194z M217.775,352.594h-26.5l99.6-197.6h25.8L217.775,352.594z M275.675,303.394
	c0-16.8,3.7-29.2,11-37.3c7.4-8.1,17.4-12.1,30.2-12.1c12.8,0,23,4,30.3,12.1c7.4,8.1,11,20.5,11,37.3c0,16.9-3.7,29.3-11,37.4
	c-7.3,8.2-17.3,12.2-29.9,12.2c-13,0-23.2-4-30.6-12.1C279.375,332.794,275.675,320.294,275.675,303.394z M303.675,303.294
	c0,12.2,1.4,20.3,4.2,24.4c2.1,3.2,5.1,4.7,8.8,4.7c3.8,0,6.8-1.5,8.8-4.6c2.8-4.2,4.2-12.3,4.2-24.5s-1.4-20.4-4.1-24.5
	c-2.1-3.1-5.1-4.6-8.9-4.6s-6.8,1.5-8.8,4.6C305.075,282.994,303.675,291.094,303.675,303.294z"/>
<g>
</g>
<g>
</g>
<g>
</g>
<g>
</g>
<g>
</g>
<g>
</g>
<g>
</g>
<g>
</g>
<g>
</g>
<g>
</g>
<g>
</g>
<g>
</g>
<g>
</g>
<g>
</g>
<g>
</g>
</svg>
