<?xml version="1.0" encoding="iso-8859-1"?>
<!-- Generator: Adobe Illustrator 19.0.0, SVG Export Plug-In . SVG Version: 6.00 Build 0)  -->
<svg version="1.1" id="Capa_1" xmlns="http://www.w3.org/2000/svg" xmlns:xlink="http://www.w3.org/1999/xlink" x="0px" y="0px"
	 viewBox="0 0 512 512" style="enable-background:new 0 0 512 512;" xml:space="preserve">
<circle style="fill:#34ABE0;" cx="255.609" cy="255.997" r="255.609"/>
<path style="fill:#F9EED7;" d="M512,256.003c0,37.434-8.044,72.989-22.504,105.029c-35.493,78.654-109.641,136.13-198.227,148.211
	c-9.431,1.294-19.03,2.066-28.753,2.295c-2.034,0.052-4.079,0.073-6.124,0.073c-93.72,0-175.65-50.433-220.147-125.634
	c-4.152-7.032-7.992-14.272-11.476-21.711c-4.382-9.379-8.221-19.061-11.466-29.025L348.15,0.394l1.346,17.486l2.462,31.799
	l49.296,3.829l3.829,49.286l49.286,3.829l3.829,49.296l34.585,2.681C505.166,188.626,512,221.511,512,256.003z"/>
<path style="fill:#FF525D;" d="M512,256.003c0,37.434-8.044,72.989-22.504,105.029L238.509,110.034L348.15,0.394l1.346,17.486
	l2.462,31.799l49.296,3.829l3.829,49.286l49.286,3.829l3.829,49.296l34.585,2.681C505.166,188.626,512,221.511,512,256.003z"/>
<path style="fill:#FFD15C;" d="M356.736,382.972l-26.625-26.625c-18.571-18.571-37.705-12.947-53.459,2.806
	c-15.931,15.942-21.377,34.888-2.806,53.448l26.625,26.635c18.571,18.56,37.517,13.125,53.448-2.817
	C369.673,420.667,375.307,401.543,356.736,382.972z M337.612,420.103c-5.822,5.822-12.008,6.375-18.195,0.188l-26.635-26.625
	c-6.187-6.187-5.623-12.384,0.188-18.195c5.822-5.811,12.196-6.562,18.383-0.376l26.635,26.635
	C344.175,407.918,343.423,414.292,337.612,420.103z M290.726,506.374l-69.202-201.232c-0.563-1.68-1.69-3.182-2.817-4.309
	c-5.999-5.999-15.754-4.131-21.002,1.127c-3.38,3.37-4.872,7.877-3.193,12.561l68.002,197.017c9.724-0.23,19.322-1.002,28.753-2.295
	C291.237,508.242,291.06,507.282,290.726,506.374z M210.267,408.669l-26.625-26.635c-18.571-18.56-37.694-12.937-53.448,2.817
	c-15.942,15.942-21.377,34.878-2.817,53.448l26.635,26.625c18.56,18.571,37.507,13.135,53.448-2.806
	C223.214,446.363,228.838,427.229,210.267,408.669z M191.143,445.8c-5.811,5.811-12.008,6.375-18.195,0.188l-26.625-26.635
	c-6.197-6.187-5.634-12.374,0.188-18.185c5.811-5.811,12.186-6.562,18.373-0.376l26.635,26.625
	C197.706,433.604,196.954,439.989,191.143,445.8z"/>
<g>
</g>
<g>
</g>
<g>
</g>
<g>
</g>
<g>
</g>
<g>
</g>
<g>
</g>
<g>
</g>
<g>
</g>
<g>
</g>
<g>
</g>
<g>
</g>
<g>
</g>
<g>
</g>
<g>
</g>
</svg>
